<svg xmlns="http://www.w3.org/2000/svg" viewBox="0 0 74.93 70.71"><defs><style>.cls-1{fill:#88ccd3;}.cls-2{fill:#024697;}</style></defs><title>c</title><g id="Capa_2" data-name="Capa 2"><g id="EXCELENCIA"><g id="Capa_12_copia_9" data-name="Capa 12 copia 9"><path class="cls-1" d="M35.36,70.71A35.36,35.36,0,1,0,0,35.36,35.35,35.35,0,0,0,35.36,70.71"/><path class="cls-2" d="M53.71,40.86a1,1,0,0,1-1-1V25.27a3.2,3.2,0,1,1,6.4,0V36.69a1,1,0,1,1-1.91,0V25.27a1.29,1.29,0,0,0-2.58,0V39.91a.94.94,0,0,1-.95,1"/><path class="cls-2" d="M71.66,57.89H54.33a1,1,0,0,1-1-1,14.21,14.21,0,0,0-.75-4.57,1,1,0,0,1,1.81-.61A16.09,16.09,0,0,1,55.25,56H70.71V37.18a1,1,0,1,1,1.91,0V56.94a1,1,0,0,1-1,1"/><path class="cls-2" d="M53.53,53a1,1,0,0,1-.91-.66,14.59,14.59,0,0,0-1.9-3.73l-5.27-7.38a1,1,0,0,1,.22-1.34,1,1,0,0,1,1.34.23l5.26,7.38a16.1,16.1,0,0,1,2.16,4.23,1,1,0,0,1-.6,1.21.8.8,0,0,1-.3.06"/><path class="cls-2" d="M55,42.19a1,1,0,0,1-.67-.28L48.84,36.4a1.83,1.83,0,0,0-2.61,0,1.85,1.85,0,0,0-.2,2.38l1,1.37a1,1,0,0,1-1.56,1.11l-1-1.37A3.76,3.76,0,0,1,50.2,35l5.51,5.52a1,1,0,0,1,0,1.35,1,1,0,0,1-.68.28"/><path class="cls-2" d="M71.66,38.14a1,1,0,0,1-1-1,1.29,1.29,0,1,0-2.58,0,1,1,0,1,1-1.91,0V34.9a1.29,1.29,0,1,0-2.58,0,1,1,0,1,1-1.91,0,3.2,3.2,0,0,1,6.34-.63,3.22,3.22,0,0,1,4.55,2.91,1,1,0,0,1-1,1"/><path class="cls-2" d="M62.69,38.61a1,1,0,0,1-1-1V33.42a1.29,1.29,0,0,0-2.58,0,1,1,0,0,1-1.91,0,3.2,3.2,0,1,1,6.4,0v4.24a1,1,0,0,1-1,1"/><path class="cls-2" d="M71.81,64.23H54.18a3.13,3.13,0,0,1-3.12-3.13v-2A3.12,3.12,0,0,1,54.18,56H71.81a3.12,3.12,0,0,1,3.12,3.12v2a3.13,3.13,0,0,1-3.12,3.13M54.18,57.89A1.21,1.21,0,0,0,53,59.1v2a1.21,1.21,0,0,0,1.21,1.21H71.81A1.21,1.21,0,0,0,73,61.1v-2a1.21,1.21,0,0,0-1.21-1.21Z"/><path class="cls-2" d="M67.17,40.3a1,1,0,0,1-1-1V37.18a1,1,0,1,1,1.91,0v2.16a1,1,0,0,1-1,1"/><path class="cls-2" d="M41.68,40.84a1,1,0,0,1-.38-.07,3.11,3.11,0,0,1-1.9-2.88V8.16A3.13,3.13,0,0,1,42.52,5h17.7a3.13,3.13,0,0,1,3.12,3.13v20a1,1,0,1,1-1.91,0v-20A1.21,1.21,0,0,0,60.22,7H42.52a1.21,1.21,0,0,0-1.21,1.21V37.89A1.21,1.21,0,0,0,42.05,39a1,1,0,0,1,.51,1.25,1,1,0,0,1-.88.58"/><path class="cls-2" d="M56.71,10.89H46a2.36,2.36,0,0,1-2.36-2.36V6a1,1,0,0,1,1-1H58.11a1,1,0,0,1,1,1V8.53a2.36,2.36,0,0,1-2.36,2.36M45.58,7V8.53A.44.44,0,0,0,46,9H56.71a.44.44,0,0,0,.44-.44V7Z"/><path class="cls-2" d="M51,30.21H48.66a1,1,0,0,1-1-1v-3h-3a1,1,0,0,1-.95-1V19.91a1,1,0,0,1,.95-1h3V16a1,1,0,0,1,1-1h5.42a1,1,0,0,1,1,1v3h3a1,1,0,1,1,0,1.91H54.08a1,1,0,0,1-1-.95v-3h-3.5v3a1,1,0,0,1-1,.95h-3v3.51h3a1,1,0,0,1,1,.95v3H51a1,1,0,0,1,0,1.92"/><path class="cls-2" d="M66.45,64.23h-24a1,1,0,1,1,0-1.92h24a1,1,0,0,1,0,1.92"/></g></g></g></svg>