<svg xmlns="http://www.w3.org/2000/svg" viewBox="0 0 169.21 220.85"><defs><style>.cls-1{font-size:42.92px;font-family:RoughRough, Rough Rough;}.cls-1,.cls-2{fill:#2c4590;}.cls-2{font-size:27.47px;font-family:CenturyGothic, Century Gothic;}.cls-3{fill:#89cdd4;}.cls-4{fill:none;stroke:#2c4590;stroke-miterlimit:10;stroke-width:2.58px;}</style></defs><title>dos</title><g id="Capa_2" data-name="Capa 2"><g id="nuestra_empresa_2" data-name="nuestra empresa 2"><g id="Capa_12_copia_2" data-name="Capa 12 copia 2"><text class="cls-1" transform="translate(35.84 109.41)">dos</text><text class="cls-2" transform="translate(82.65 109.42)"><tspan xml:space="preserve"> (2) </tspan></text><text class="cls-2" transform="translate(18.79 143.76)">suplentes </text><text class="cls-2" transform="translate(0 178.09)">del Gerente </text><text class="cls-2" transform="translate(25.27 212.43)">general,</text><path class="cls-3" d="M77.37,75A37.48,37.48,0,1,0,39.9,37.47,37.48,37.48,0,0,0,77.37,75"/><path class="cls-4" d="M113.35,48.83A13.55,13.55,0,0,1,120.06,47c9.08,0,16.45,9.37,16.45,20.92m-7.75-34a8.7,8.7,0,1,1-8.7-8.57A8.64,8.64,0,0,1,128.76,33.93ZM88,45.07a15.88,15.88,0,0,1,7.6-2c10.78,0,19.52,11.11,19.52,24.82m-9.2-40.36A10.33,10.33,0,1,1,95.58,17.41,10.24,10.24,0,0,1,105.9,27.58ZM44.36,67.94c0-16.18,10.32-29.3,23-29.3s23,13.12,23,29.3M79.6,20.3a12.19,12.19,0,1,1-12.19-12A12.1,12.1,0,0,1,79.6,20.3Z"/></g></g></g></svg>