<svg xmlns="http://www.w3.org/2000/svg" viewBox="0 0 87.42 70.71"><defs><style>.cls-1{fill:#e26a95;}.cls-2{fill:#024697;}</style></defs><title>grupos</title><g id="Capa_2" data-name="Capa 2"><g id="VALOR_CORP" data-name="VALOR CORP"><g id="Capa_12_copia_3" data-name="Capa 12 copia 3"><path class="cls-1" d="M35.36,70.71A35.36,35.36,0,1,0,0,35.36,35.35,35.35,0,0,0,35.36,70.71"/><path class="cls-2" d="M69.89,54.39l2.37,3.09c2.18,2.86,4.35,5.72,6.54,8.57a3.51,3.51,0,1,0,5-4.72c-2.71-2.12-5.47-4.19-8.21-6.28L72,52.28l-2.13,2.11m6.92-20.52A25.38,25.38,0,1,0,51.48,59.2,25.39,25.39,0,0,0,76.81,33.87M54.56,6.33c1,.2,2.06.37,3.07.61A27.15,27.15,0,0,1,76.11,21.58,26.36,26.36,0,0,1,79,35a27.27,27.27,0,0,1-5.36,15.16c-.09.11-.17.23-.29.41l3.47,2.65c2.69,2.06,5.36,4.14,8.08,6.16a6.71,6.71,0,0,1,2.57,3.87v1.86c-.09.29-.18.58-.28.86a5.49,5.49,0,0,1-4.57,3.79,5.42,5.42,0,0,1-5.29-2.16C75.5,65.3,73.76,63,72,60.7l-3.85-5A26.52,26.52,0,0,1,59,60.28a27,27,0,0,1-24.78-5,25.91,25.91,0,0,1-9.78-16.09c-1.58-8.67.32-16.56,6.1-23.34A27.13,27.13,0,0,1,46.66,6.62c.57-.11,1.13-.2,1.7-.29Z"/><path class="cls-2" d="M28.1,33.84A23.34,23.34,0,0,1,45.71,11.27a1.08,1.08,0,1,1,.56,2.06A21.07,21.07,0,0,0,30.5,31.09a21.12,21.12,0,1,0,24.82-18c-1.21-.22-2.46-.26-3.69-.36-.8-.07-1.26-.45-1.27-1.07s.52-1.07,1.32-1.07a23.3,23.3,0,1,1-23,28.38,24.34,24.34,0,0,1-.4-2.56c-.1-.84-.13-1.69-.19-2.53"/><path class="cls-2" d="M62.1,46.12H60.18c0-6.16-3.83-11.18-8.54-11.18s-8.53,5-8.53,11.18H41.19c0-7.22,4.69-13.1,10.45-13.1S62.1,38.9,62.1,46.12ZM51.64,32.32a5.94,5.94,0,1,1,6-5.93A6,6,0,0,1,51.64,32.32Zm0-9.95a4,4,0,1,0,4.06,4A4,4,0,0,0,51.64,22.37Z"/></g></g></g></svg>