<svg xmlns="http://www.w3.org/2000/svg" xmlns:xlink="http://www.w3.org/1999/xlink" viewBox="0 0 76.04 70.71"><defs><style>.cls-1{fill:none;}.cls-2{clip-path:url(#clip-path);}.cls-3{fill:#db6e90;}.cls-4{clip-path:url(#clip-path-2);}.cls-5{fill:#2b4591;}</style><clipPath id="clip-path" transform="translate(0 -9.18)"><rect class="cls-1" width="90.64" height="89.08"/></clipPath><clipPath id="clip-path-2" transform="translate(0 -9.18)"><rect class="cls-1" x="25.85" y="20.21" width="50.19" height="52"/></clipPath></defs><title>IconPa</title><g id="Capa_2" data-name="Capa 2"><g id="TRANSFORMAMOS"><g id="Capa_12_copia_12" data-name="Capa 12 copia 12"><g class="cls-2"><path class="cls-3" d="M35.36,79.9A35.36,35.36,0,1,0,0,44.54,35.36,35.36,0,0,0,35.36,79.9" transform="translate(0 -9.18)"/><g class="cls-4"><path class="cls-5" d="M74.23,29.17c0-.14,0-.21,0-.29,0-1.36,0-2.72,0-4.08a2.69,2.69,0,1,0-5.38,0c0,1.32,0,2.65,0,4a2.35,2.35,0,0,0,0,.37ZM59.91,63.29H27.65c0,1.43,0,2.83,0,4.23a2.73,2.73,0,0,0,2.91,2.9H60.24c.15,0,.31,0,.53,0A5.26,5.26,0,0,1,59.9,67c0-1.21,0-2.42,0-3.67M68,22H37.9a2.76,2.76,0,0,0-3.08,3.07V61.46h25a1.77,1.77,0,0,1,1.92,1.91c0,1.41,0,2.83,0,4.25a2.71,2.71,0,0,0,3.41,2.69,2.64,2.64,0,0,0,2-2.72q0-21,0-42.05A5.62,5.62,0,0,1,68,22M33,61.46v-.72c0-11.93,0-23.86,0-35.78a4.72,4.72,0,0,1,4.76-4.75c11.2.06,22.4,0,33.6,0A4.45,4.45,0,0,1,76,24.9c0,1.42,0,2.84,0,4.25A1.75,1.75,0,0,1,74.21,31H68.87V67.55a4.55,4.55,0,0,1-3.72,4.59,3.38,3.38,0,0,1-.78.07h-34a4.44,4.44,0,0,1-4.52-4.54c0-1.4,0-2.8,0-4.2a1.78,1.78,0,0,1,2-2H33" transform="translate(0 -9.18)"/><path class="cls-5" d="M59,37.24a8.07,8.07,0,1,0-8,8.08,8.1,8.1,0,0,0,8-8.08m-17.92,0a9.86,9.86,0,1,1,9.85,9.9,9.83,9.83,0,0,1-9.85-9.9" transform="translate(0 -9.18)"/><path class="cls-5" d="M47.81,50.7h4.75c.71,0,1.09.34,1.08.93s-.4.86-1.07.86H43.06c-.71,0-1.09-.33-1.07-.92s.39-.86,1.07-.87h4.75" transform="translate(0 -9.18)"/><path class="cls-5" d="M54.06,56.08H49.31c-.67,0-1-.33-1.05-.89s.37-.9,1-.9h9.57c.67,0,1,.32,1,.88s-.37.91-1,.91H54.06" transform="translate(0 -9.18)"/><path class="cls-5" d="M57.67,50.7c.45,0,.9,0,1.34,0a.89.89,0,1,1,0,1.78H56.33a.89.89,0,1,1,0-1.78c.45,0,.89,0,1.34,0" transform="translate(0 -9.18)"/><path class="cls-5" d="M44.2,56.08c-.45,0-.89,0-1.34,0a.89.89,0,0,1,0-1.78h2.73a.86.86,0,0,1,.88.89.88.88,0,0,1-.88.9H44.2" transform="translate(0 -9.18)"/><path class="cls-5" d="M50.93,31a6.23,6.23,0,0,1,4.4,1.77.87.87,0,0,1,.18,1.17.82.82,0,0,1-1,.38,2.14,2.14,0,0,1-.63-.43,4.47,4.47,0,1,0-.15,6.9c.12-.09.23-.2.34-.29a.91.91,0,1,1,1.21,1.35,6.09,6.09,0,0,1-6.18,1.42,5.94,5.94,0,0,1-4.27-4.73A6.24,6.24,0,0,1,50.93,31" transform="translate(0 -9.18)"/></g></g></g></g></g></svg>