<svg xmlns="http://www.w3.org/2000/svg" xmlns:xlink="http://www.w3.org/1999/xlink" viewBox="0 0 85.07 70.71"><defs><style>.cls-1,.cls-5{fill:none;}.cls-2{clip-path:url(#clip-path);}.cls-3{fill:#5cccd3;}.cls-4{clip-path:url(#clip-path-2);}.cls-5{stroke:#114393;stroke-miterlimit:10;stroke-width:2.33px;}</style><clipPath id="clip-path" transform="translate(0 0)"><rect class="cls-1" width="90.64" height="70.71"/></clipPath><clipPath id="clip-path-2" transform="translate(0 0)"><rect class="cls-1" x="27.45" y="6.05" width="57.62" height="57.44"/></clipPath></defs><title>IconPro</title><g id="Capa_2" data-name="Capa 2"><g id="Capa_1-2" data-name="Capa 1"><g class="cls-2"><path class="cls-3" d="M35.36,70.71A35.36,35.36,0,1,0,0,35.36,35.35,35.35,0,0,0,35.36,70.71" transform="translate(0 0)"/></g><g class="cls-4"><path class="cls-5" d="M56.26,7.41l5.21,3.12,6-.73,3.49,5,5.8,1.79,1.17,6,4.57,4-1.35,5.93L83.72,38l-3.64,4.86.09,6.08-5.3,3-2.38,5.6-6,.54L62,62.16l-5.74-2-5.74,2L46.08,58l-6-.54-2.38-5.6-5.3-3,.09-6.08L28.8,38l2.55-5.52L30,26.53l4.57-4,1.17-6,5.8-1.79L45,9.8l6,.73ZM52.72,36.77,48.4,32.36a3.38,3.38,0,0,0-3.63-.92,3.51,3.51,0,0,0-1.4,5.87c2.08,2.17,4.24,4.27,6.37,6.4s4,2.12,6.06,0q6.44-6.42,12.84-12.87a7.43,7.43,0,0,0,.87-1,3.51,3.51,0,0,0-2-5.43,3.69,3.69,0,0,0-3.75,1.26ZM53.8,56c-1-.25-2.13-.42-3.17-.75-8.56-2.71-13.86-8.42-15.33-17.36a21.2,21.2,0,1,1,24,17.9,2.68,2.68,0,0,0-.6.21Z" transform="translate(0 0)"/></g></g></g></svg>