<svg xmlns="http://www.w3.org/2000/svg" xmlns:xlink="http://www.w3.org/1999/xlink" viewBox="0 0 76.2 70.71"><defs><style>.cls-1{fill:none;}.cls-2{clip-path:url(#clip-path);}.cls-3{fill:#f4b52d;}.cls-4{fill:#024697;}</style><clipPath id="clip-path" transform="translate(0 -9.18)"><rect class="cls-1" width="90.64" height="89.08"/></clipPath></defs><title>iconBien</title><g id="Capa_2" data-name="Capa 2"><g id="BIENESTAR_INTERG" data-name="BIENESTAR INTERG"><g id="Capa_12_copia_6" data-name="Capa 12 copia 6"><g class="cls-2"><path class="cls-3" d="M35.36,79.9A35.36,35.36,0,1,0,0,44.54,35.36,35.36,0,0,0,35.36,79.9" transform="translate(0 -9.18)"/><path class="cls-4" d="M43.88,43.1h0a1.06,1.06,0,0,0,1.57,0h0l10.12-11s0,0,0,0a8.09,8.09,0,0,0,1.66-2.88,8.45,8.45,0,0,0,.43-2.68c0-4.35-3.23-7.89-7.2-7.89a7,7,0,0,0-5.83,3.3,7,7,0,0,0-5.83-3.3c-4,0-7.2,3.54-7.2,7.89a8.65,8.65,0,0,0,.4,2.62,8.12,8.12,0,0,0,1.34,2.52h0a8.39,8.39,0,0,0,.76.82h0ZM33.76,28.46a6.42,6.42,0,0,1-.3-2A6.2,6.2,0,0,1,35,22.33a5.11,5.11,0,0,1,3.79-1.72,5.38,5.38,0,0,1,4.88,3.46,1,1,0,0,0,.95.66,1,1,0,0,0,.94-.66,5.41,5.41,0,0,1,4.89-3.46,5.08,5.08,0,0,1,3.78,1.72,6.16,6.16,0,0,1,1.58,4.17,6.35,6.35,0,0,1-.32,2,6,6,0,0,1-1.26,2.18l-9.6,10.44L35.41,31.05l0-.05a5.41,5.41,0,0,1-.6-.66,6,6,0,0,1-1-1.88" transform="translate(0 -9.18)"/><path class="cls-4" d="M43.88,43.1h0a1.06,1.06,0,0,0,1.57,0h0l10.12-11s0,0,0,0a8.09,8.09,0,0,0,1.66-2.88,8.45,8.45,0,0,0,.43-2.68c0-4.35-3.23-7.89-7.2-7.89a7,7,0,0,0-5.83,3.3,7,7,0,0,0-5.83-3.3c-4,0-7.2,3.54-7.2,7.89a8.65,8.65,0,0,0,.4,2.62,8.12,8.12,0,0,0,1.34,2.52h0a8.39,8.39,0,0,0,.76.82h0ZM33.76,28.46a6.42,6.42,0,0,1-.3-2A6.2,6.2,0,0,1,35,22.33a5.11,5.11,0,0,1,3.79-1.72,5.38,5.38,0,0,1,4.88,3.46,1,1,0,0,0,.95.66,1,1,0,0,0,.94-.66,5.41,5.41,0,0,1,4.89-3.46,5.08,5.08,0,0,1,3.78,1.72,6.16,6.16,0,0,1,1.58,4.17,6.35,6.35,0,0,1-.32,2,6,6,0,0,1-1.26,2.18l-9.6,10.44L35.41,31.05l0-.05a5.41,5.41,0,0,1-.6-.66A6,6,0,0,1,33.76,28.46Z" transform="translate(0 -9.18)"/><path class="cls-4" d="M76,54.46a1.15,1.15,0,0,0-1-.5c-2.92,0-4.91-1.62-7.22-3.5-.5-.4-1-.82-1.53-1.22a13.89,13.89,0,0,0-8.75-3.3c-1.67,0-3,0-4,.05H45.33a3.6,3.6,0,0,0,0,7.18H52.9a2.3,2.3,0,0,1,1.67,2.31,2.45,2.45,0,0,1-1,2l-2.79.81c-1,.25-1.9.52-2.9.84l-.2,0c-5.2,1.51-7,2-7.52,2.16a3,3,0,0,1-.54,0L27.73,52.88l-2.17-1.72-.12-.09-.37-.22a4.44,4.44,0,0,0-.71-.32,4.81,4.81,0,0,0-.6-.14,4,4,0,0,0-1.47,0,4.89,4.89,0,0,0-4.2,5,5.13,5.13,0,0,0,1.34,3.5l.06.07a4.8,4.8,0,0,0,1,.84L40.28,75.52a1.33,1.33,0,0,0,.35.19l.2.08a5,5,0,0,0,1.76.35A4.85,4.85,0,0,0,43.65,76l.07,0,.09,0c7.08-2,19.87-5.53,25.94-7.17l.12,0,.39-.15a21.2,21.2,0,0,1,4.74-.9,1.2,1.2,0,0,0,1.18-1.22V65.7a.78.78,0,0,0,0-.22l0-10.1a1.21,1.21,0,0,0-.21-.92m-2.15,10.9a31.72,31.72,0,0,0-4.23.91l-.13,0-.38.15c-6.1,1.65-18.83,5.19-25.89,7.16l-.06,0a2.53,2.53,0,0,1-1.44-.12l-.1,0L21.91,57.85l-.15-.1a2.52,2.52,0,0,1-.56-.44l0,0a2.73,2.73,0,0,1-.71-1.86,2.48,2.48,0,0,1,2.12-2.59l.14,0a1.86,1.86,0,0,1,.66,0l.25.06a1.66,1.66,0,0,1,.31.14,1.48,1.48,0,0,1,.21.13l0,0,2.13,1.68.05,0,12.11,8.6a1.27,1.27,0,0,0,.37.18,5.05,5.05,0,0,0,1.56.13l.22,0c.55-.14,3.14-.88,7.7-2.2l.22-.07c1-.31,1.92-.58,2.85-.82l3-.87a1,1,0,0,0,.28-.13,4.83,4.83,0,0,0,2.28-4.16,4.68,4.68,0,0,0-3.72-4.72l-.2,0H45.33a1.17,1.17,0,0,1,0-2.32h8.22c1.05,0,2.35-.05,4-.05a11.58,11.58,0,0,1,7.34,2.83c.5.38,1,.78,1.47,1.17,2.16,1.76,4.39,3.57,7.49,4v9a.09.09,0,0,1,0,0" transform="translate(0 -9.18)"/></g></g></g></g></svg>