<svg xmlns="http://www.w3.org/2000/svg" xmlns:xlink="http://www.w3.org/1999/xlink" viewBox="0 0 76.87 70.71"><defs><style>.cls-1{fill:none;}.cls-2{fill:#f4b52d;}.cls-3{clip-path:url(#clip-path);}.cls-4{fill:#2b4591;}</style><clipPath id="clip-path"><rect class="cls-1" x="25.29" y="14.52" width="51.58" height="42.06"/></clipPath></defs><title>iconCap</title><g id="Capa_2" data-name="Capa 2"><g id="BIENESTAR_INTERG" data-name="BIENESTAR INTERG"><g id="Capa_12_copia_6" data-name="Capa 12 copia 6"><path class="cls-2" d="M35.36,70.71A35.36,35.36,0,1,0,0,35.36,35.35,35.35,0,0,0,35.36,70.71"/><g class="cls-3"><path class="cls-4" d="M36.88,24.05a4.67,4.67,0,1,1,4.66-4.67,4.67,4.67,0,0,1-4.66,4.67m0-7.74a3.07,3.07,0,1,0,3,3.07,3,3,0,0,0-3-3.07"/><path class="cls-4" d="M36.88,56.58a.82.82,0,0,1-.84-.8V42.27a.84.84,0,0,1,1.68,0V55.78a.82.82,0,0,1-.84.8"/><path class="cls-4" d="M73.63,56.58H26.13a.8.8,0,1,1,0-1.6h47.5a.8.8,0,1,1,0,1.6"/><path class="cls-4" d="M53.13,56.58a1,1,0,0,1-.3,0,.8.8,0,0,1-.49-1l7.08-17.88a.85.85,0,0,1,1.08-.46.78.78,0,0,1,.48,1L53.91,56.06a.85.85,0,0,1-.78.52"/><path class="cls-4" d="M67.28,56.58a.85.85,0,0,1-.79-.52L61,42.27V55.78a.82.82,0,0,1-.84.8.82.82,0,0,1-.83-.8V37.9a.8.8,0,0,1,.68-.79.84.84,0,0,1,.93.5l7.08,17.88a.8.8,0,0,1-.49,1,1,1,0,0,1-.29,0"/><path class="cls-4" d="M52.83,25.34a.85.85,0,0,0-.71.37.78.78,0,0,0,.27,1.11l6,3.6a.87.87,0,0,0,.87,0l2.61-1.51,3.16,2.5a.85.85,0,0,0,.53.18H69L70.86,35a.86.86,0,0,0,1.13.34.8.8,0,0,0,.35-1.09l-2.11-3.81a.84.84,0,0,0-.74-.43H65.91l-3.39-2.68a.86.86,0,0,0-1-.07L58.88,28.8l-5.61-3.34a.79.79,0,0,0-.44-.12"/><path class="cls-4" d="M41.15,56.58H32.61a.82.82,0,0,1-.84-.8V42a3,3,0,0,1-1.28.28,2.9,2.9,0,0,1-2.95-2.82V30.33a5,5,0,0,1,5.07-4.84H41a26,26,0,0,0,8.74-5.59,3.11,3.11,0,0,1,4-.21,2.66,2.66,0,0,1,.76,3.65A19,19,0,0,1,42,31.41V55.78a.82.82,0,0,1-.84.8M33.44,55h6.88V30.74a.82.82,0,0,1,.7-.8,17.38,17.38,0,0,0,12-7.42A1.13,1.13,0,0,0,52.69,21a1.4,1.4,0,0,0-1.76.08,26.67,26.67,0,0,1-9.52,6,1.09,1.09,0,0,1-.26,0H32.61a3.32,3.32,0,0,0-3.39,3.24v9.09a1.28,1.28,0,0,0,2.55,0,.84.84,0,0,1,1.67,0Z"/><path class="cls-4" d="M32.61,40.22a.82.82,0,0,1-.84-.8V32.55a.84.84,0,0,1,1.67,0v6.87a.82.82,0,0,1-.83.8"/><path class="cls-4" d="M73.63,38.7H71.52a.8.8,0,1,1,0-1.6h1.27V19a.83.83,0,0,1,.84-.81H75.2V16.12h-30v2.07h1.56a.83.83,0,0,1,.84.81v2.75a25.36,25.36,0,0,0,2.14-1.85,3.11,3.11,0,0,1,4-.21,2.66,2.66,0,0,1,.76,3.65,18,18,0,0,1-6.86,6.12V37.1H65.53a.8.8,0,1,1,0,1.6H46.77a.82.82,0,0,1-.83-.8V29a.79.79,0,0,1,.45-.71A16.7,16.7,0,0,0,53,22.52,1.13,1.13,0,0,0,52.69,21a1.4,1.4,0,0,0-1.76.08,28.76,28.76,0,0,1-3.67,3,.85.85,0,0,1-.87.06.78.78,0,0,1-.45-.71V19.8H44.37a.82.82,0,0,1-.84-.8V15.32a.82.82,0,0,1,.84-.8H76a.82.82,0,0,1,.84.8V19a.82.82,0,0,1-.84.8H74.47V37.9a.82.82,0,0,1-.84.8"/><path class="cls-4" d="M67.92,19.8H46.77a.81.81,0,1,1,0-1.61H67.92a.81.81,0,1,1,0,1.61"/></g></g></g></g></svg>