<svg xmlns="http://www.w3.org/2000/svg" xmlns:xlink="http://www.w3.org/1999/xlink" viewBox="0 0 74.5 70.71"><defs><style>.cls-1,.cls-5{fill:none;}.cls-2{clip-path:url(#clip-path);}.cls-3{fill:#5cccd3;}.cls-4{clip-path:url(#clip-path-2);}.cls-5{stroke:#114393;stroke-miterlimit:10;stroke-width:1.8px;}</style><clipPath id="clip-path" transform="translate(0 0)"><rect class="cls-1" width="90.64" height="70.71"/></clipPath><clipPath id="clip-path-2" transform="translate(0 0)"><rect class="cls-1" x="24.24" y="10.06" width="50.26" height="49.3"/></clipPath></defs><title>Iconstr</title><g id="Capa_2" data-name="Capa 2"><g id="Capa_1-2" data-name="Capa 1"><g class="cls-2"><path class="cls-3" d="M35.36,70.71A35.36,35.36,0,1,0,0,35.36,35.35,35.35,0,0,0,35.36,70.71" transform="translate(0 0)"/><g class="cls-4"><path class="cls-5" d="M25.14,59.17c0-13.08,8.43-23.69,18.84-23.69a15.64,15.64,0,0,1,8,2.23m2-17a10,10,0,0,1-19.93,0,10,10,0,0,1,19.93,0Z" transform="translate(0 0)"/><path class="cls-5" d="M32.2,40.77l12,17,5.28-7.73M44.21,38.8c.47,0,.94,0,1.4,0,1.26.09,1.81,1.09,1.15,2.09-.23.36-.72,1.08-1,1.42s-.58.85-.54,1c.25,1.41,1,5.43,1,5.43s-1.64,3.42-2,4a28.55,28.55,0,0,1-2-4c.18-1.3.77-3.78,1.07-5.43,0-.18-.57-.91-.68-1.07-.4-.6-.6-.81-1-1.41a1.28,1.28,0,0,1,1.1-2.07c.51,0,1,0,1.54,0Zm16.38,8.07-2.27-2.16a1.87,1.87,0,0,0-1.91-.45,1.68,1.68,0,0,0-.74,2.88c1.1,1.06,2.23,2.09,3.35,3.13a2,2,0,0,0,3.18,0L69,44a4.06,4.06,0,0,0,.45-.48,1.68,1.68,0,0,0-1.05-2.66,2,2,0,0,0-2,.61Zm.56,9.45c-.55-.12-1.12-.21-1.66-.37-4.5-1.33-7.28-4.13-8.05-8.51-.9-5.09,2.55-10.13,7.8-11.53,6.22-1.67,12.51,1.75,14.05,7.62S70.42,55.41,64,56.21a1.45,1.45,0,0,0-.31.11Z" transform="translate(0 0)"/></g></g></g></g></svg>