<svg xmlns="http://www.w3.org/2000/svg" xmlns:xlink="http://www.w3.org/1999/xlink" viewBox="0 0 90.64 70.71"><defs><style>.cls-1,.cls-4{fill:none;}.cls-2{clip-path:url(#clip-path);}.cls-3{fill:#5cccd3;}.cls-4{stroke:#144392;stroke-miterlimit:10;stroke-width:2.43px;}</style><clipPath id="clip-path" transform="translate(0 0)"><rect class="cls-1" width="90.64" height="70.71"/></clipPath></defs><title>IconCor</title><g id="Capa_2" data-name="Capa 2"><g id="Capa_1-2" data-name="Capa 1"><g class="cls-2"><path class="cls-3" d="M35.36,70.71A35.36,35.36,0,1,0,0,35.36,35.35,35.35,0,0,0,35.36,70.71" transform="translate(0 0)"/><path class="cls-4" d="M27.8,16.07a15.35,15.35,0,0,0,5.82,2.48c2.73.31,8.92-1.38,11.55.44M41.1,57.77h0a2.75,2.75,0,0,1-.62-3.83l2.39-3.32A2.72,2.72,0,0,1,46.68,50a2.75,2.75,0,0,1,.62,3.83l-2.39,3.32A2.72,2.72,0,0,1,41.1,57.77Zm-5.57-2.24h0a2.77,2.77,0,0,1-.62-3.84l3.33-4.63a2.74,2.74,0,1,1,4.43,3.22l-3.33,4.63A2.72,2.72,0,0,1,35.53,55.53Zm-4.4-4h0a2.76,2.76,0,0,1-.61-3.83l3.33-4.63a2.72,2.72,0,0,1,3.81-.62,2.76,2.76,0,0,1,.62,3.83L35,50.92A2.73,2.73,0,0,1,31.13,51.54Zm-3.85-4.79h0a2.76,2.76,0,0,1-.62-3.84l2.25-3.12a2.72,2.72,0,0,1,3.81-.62A2.75,2.75,0,0,1,33.34,43l-2.25,3.13A2.72,2.72,0,0,1,27.28,46.75ZM16.17,38.43l-1.75-.7a2.48,2.48,0,0,1-1.36-3.22l8.42-21a2.46,2.46,0,0,1,3.21-1.37l1.75.71a2.48,2.48,0,0,1,1.36,3.22l-8.42,21A2.46,2.46,0,0,1,16.17,38.43ZM88,35.76l-1.7.82a2.44,2.44,0,0,1-3.28-1.16L73.29,15a2.5,2.5,0,0,1,1.16-3.31l1.7-.81a2.44,2.44,0,0,1,3.28,1.16l9.75,20.4A2.47,2.47,0,0,1,88,35.76ZM69.27,45.11s3.53,3,5.68.54c1.67-1.89,2-3.84,0-5.82M63.32,50.05s3.5,2.49,5.95-.64c2.29-2.93-.77-5.78-4.51-8.22m-8,13.42s3.76,3,6.51.1c2.36-2.45.49-5.44-3.26-7.88M19.26,36.17,27.33,42M46.09,55.51c2.33,1.68,4,2.89,4.46,3.24,2.21,1.67,4.36,1.67,5.82.42s1.94-4.12-1.81-6.9M74.4,15.86s-3.71,1.91-5.21,2.41-17-2.92-19.23-2.41-14,10.58-14.82,11.88,5.21,6.74,13.82-.91c0,0,4.61,6.84,16.63,5.63l10.33,8.17,6.66-5" transform="translate(0 0)"/></g></g></g></svg>