<svg xmlns="http://www.w3.org/2000/svg" xmlns:xlink="http://www.w3.org/1999/xlink" viewBox="0 0 76.29 70.69"><defs><style>.cls-1{fill:none;}.cls-2{clip-path:url(#clip-path);}.cls-3{fill:#db6e90;}.cls-4{fill:#024697;}</style><clipPath id="clip-path" transform="translate(0 -9.18)"><rect class="cls-1" width="90.61" height="89.05"/></clipPath></defs><title>IconAhorro</title><g id="Capa_2" data-name="Capa 2"><g id="TRANSFORMAMOS"><g id="Capa_12_copia_12" data-name="Capa 12 copia 12"><g class="cls-2"><path class="cls-3" d="M35.34,79.87A35.35,35.35,0,1,0,0,44.53,35.35,35.35,0,0,0,35.34,79.87" transform="translate(0 -9.18)"/><path class="cls-4" d="M53.48,61.4a1,1,0,0,1-.95-.74,5.27,5.27,0,0,0-4.14-4.06c-.83-.2-1.66-.32-2.53-.45a20.49,20.49,0,0,1-4.26-1l-.07,0a9.46,9.46,0,0,0-3.93-.87A10.53,10.53,0,0,0,33.47,56l-.52.29a27.31,27.31,0,0,0-4.52,3,1,1,0,0,1-1.29-1.47A29.51,29.51,0,0,1,32,54.56l.51-.29a12.06,12.06,0,0,1,5-1.93,10.87,10.87,0,0,1,4.76,1l.08,0a18.86,18.86,0,0,0,3.85.85c.88.13,1.79.26,2.7.48a7.24,7.24,0,0,1,5.59,5.5,1,1,0,0,1-.71,1.18,1,1,0,0,1-.24,0" transform="translate(0 -9.18)"/><path class="cls-4" d="M44.86,72a13.36,13.36,0,0,1-6.78-1.84,4,4,0,0,0-2.91-.43l-4.19,1a1,1,0,0,1-.43-1.91l4.18-1a5.88,5.88,0,0,1,4.34.64A11.36,11.36,0,0,0,46,70a51.14,51.14,0,0,0,11.13-2.19A50.13,50.13,0,0,0,65,64.53c.68-.5,1.35-1,2-1.58a41.61,41.61,0,0,0,7.13-7.83,1,1,0,0,0,.12-1,1,1,0,0,0-.73-.65,2.89,2.89,0,0,0-1.09-.06,3.57,3.57,0,0,0-1.88,1l0,0c-3.74,3.6-11.87,6.6-15.37,7.27a33.63,33.63,0,0,1-10.41.34A1,1,0,1,1,45,60.17a31.93,31.93,0,0,0,9.81-.32c3.21-.62,11-3.47,14.39-6.76a5.47,5.47,0,0,1,3-1.6,5,5,0,0,1,1.83.1,3,3,0,0,1,2.1,1.86,3,3,0,0,1-.35,2.79,43,43,0,0,1-7.47,8.21c-.7.59-1.43,1.16-2.16,1.71l-.14.08a53.94,53.94,0,0,1-8.26,3.4,53.24,53.24,0,0,1-11.54,2.27q-.66.06-1.32.06" transform="translate(0 -9.18)"/><path class="cls-4" d="M25.08,58.53a2.2,2.2,0,0,0-.44,0,1.91,1.91,0,0,0-1.39,2.28l2.24,9.27a1.86,1.86,0,0,0,.85,1.16,1.82,1.82,0,0,0,1.42.23,1.88,1.88,0,0,0,1.16-.85,1.92,1.92,0,0,0,.23-1.42L26.91,60a1.89,1.89,0,0,0-1.83-1.44m2.24,15a3.86,3.86,0,0,1-3.73-2.94l-2.24-9.27a3.84,3.84,0,1,1,7.46-1.81L31,68.79a3.83,3.83,0,0,1-2.82,4.63,4,4,0,0,1-.9.11" transform="translate(0 -9.18)"/><path class="cls-4" d="M49.28,42.44h5.19v-.5A8,8,0,0,1,58,35.43,11.1,11.1,0,0,0,52.4,15.21,11.09,11.09,0,0,0,40.6,26.29a11.06,11.06,0,0,0,5.16,9.38,7.67,7.67,0,0,1,3.52,6.53Zm7.15,2h-9.1V42.2a5.81,5.81,0,0,0-2.62-4.88,13,13,0,0,1-6.06-11,13.14,13.14,0,0,1,4.11-9.52,12.9,12.9,0,0,1,9.76-3.52A13.07,13.07,0,0,1,59.08,37a6,6,0,0,0-2.65,4.9Z" transform="translate(0 -9.18)"/><path class="cls-4" d="M47.84,48.69h8.08V44.4H47.84Zm10,2h-12V42.44h12Z" transform="translate(0 -9.18)"/><path class="cls-4" d="M53.36,44.4h-.12a1,1,0,0,1-.85-1.09L54,29.79H49.16l2.22,13.07a1,1,0,1,1-1.93.33l-2.6-15.36h9.37l-1.89,15.7a1,1,0,0,1-1,.87" transform="translate(0 -9.18)"/></g></g></g></g></svg>