<svg xmlns="http://www.w3.org/2000/svg" xmlns:xlink="http://www.w3.org/1999/xlink" viewBox="0 0 79.42 70.71"><defs><style>.cls-1{fill:none;}.cls-2{clip-path:url(#clip-path);}.cls-3{fill:#db6e90;}.cls-4{fill:#024697;}</style><clipPath id="clip-path" transform="translate(0 -9.18)"><rect class="cls-1" width="90.64" height="89.08"/></clipPath></defs><title>IconAgua</title><g id="Capa_2" data-name="Capa 2"><g id="TRANSFORMAMOS"><g id="Capa_12_copia_12" data-name="Capa 12 copia 12"><g class="cls-2"><path class="cls-3" d="M35.36,79.9A35.36,35.36,0,1,0,0,44.54,35.36,35.36,0,0,0,35.36,79.9" transform="translate(0 -9.18)"/><path class="cls-4" d="M51.57,17.31c-3.91,4.11-11.81,13.42-11.81,18.28,0,6.21,5.3,11.25,11.81,11.25s11.81-5,11.81-11.25c0-4.87-7.89-14.17-11.81-18.28m0,31.61c-7.71,0-14-6-14-13.33,0-7.11,12.66-20,13.2-20.52l.79-.81.8.81c.54.54,13.19,13.41,13.19,20.52,0,7.35-6.27,13.33-14,13.33" transform="translate(0 -9.18)"/><path class="cls-4" d="M54,58.69a1.07,1.07,0,0,1-1-.78A5.79,5.79,0,0,0,48.3,53.6c-.92-.21-1.84-.34-2.82-.48a23.79,23.79,0,0,1-4.74-1l-.09,0a10.91,10.91,0,0,0-4.37-.93,12.14,12.14,0,0,0-4.61,1.78l-.58.32a30,30,0,0,0-5,3.21,1.13,1.13,0,0,1-1.54-.09,1,1,0,0,1,.1-1.47A32.1,32.1,0,0,1,30,51.44l.56-.31a13.92,13.92,0,0,1,5.52-2,12.66,12.66,0,0,1,5.31,1l.09,0a21.74,21.74,0,0,0,4.3.9c1,.14,2,.28,3,.51A7.91,7.91,0,0,1,55,57.4a1,1,0,0,1-.79,1.26,1.24,1.24,0,0,1-.27,0" transform="translate(0 -9.18)"/><path class="cls-4" d="M44.37,69.9a15.26,15.26,0,0,1-7.56-2,4.6,4.6,0,0,0-3.25-.45l-4.67,1a1.09,1.09,0,0,1-1.3-.78,1,1,0,0,1,.82-1.24l4.67-1a6.91,6.91,0,0,1,4.84.69,12.34,12.34,0,0,0,2.13,1,13.33,13.33,0,0,0,5.59.65,59.48,59.48,0,0,0,12.41-2.31A58.38,58.38,0,0,0,66.85,62c.76-.53,1.5-1.1,2.22-1.68A44.43,44.43,0,0,0,77,52a1.08,1.08,0,0,0,.13-1,1.13,1.13,0,0,0-.81-.69,3.13,3.13,0,0,0-1.21-.06,4,4,0,0,0-2.1,1.1l0,0c-4.18,3.81-13.25,7-17.15,7.7a39.59,39.59,0,0,1-11.61.36,1.05,1.05,0,0,1-1-1.15,1.08,1.08,0,0,1,1.21-.91A37.45,37.45,0,0,0,55.45,57c3.58-.65,12.24-3.68,16-7.16a6.13,6.13,0,0,1,3.32-1.7,5.71,5.71,0,0,1,2.05.1,3.29,3.29,0,0,1,2.33,2,3.06,3.06,0,0,1-.39,3,46.75,46.75,0,0,1-8.33,8.7c-.78.63-1.59,1.23-2.41,1.81l-.15.09a61.32,61.32,0,0,1-9.21,3.61,61.53,61.53,0,0,1-12.87,2.4,14.46,14.46,0,0,1-1.47.07" transform="translate(0 -9.18)"/><path class="cls-4" d="M22.31,55.65a2.16,2.16,0,0,0-1.78,1,1.88,1.88,0,0,0-.26,1.51L22.77,68a2.11,2.11,0,0,0,2.53,1.47A2,2,0,0,0,26.85,67l-2.5-9.83a2.07,2.07,0,0,0-2-1.53m3.24,14.78h0Zm-.74,1.12a4.25,4.25,0,0,1-4.16-3.11l-2.49-9.83a3.86,3.86,0,0,1,.51-3.08,4.2,4.2,0,0,1,2.64-1.84,4.44,4.44,0,0,1,3.23.48,4.12,4.12,0,0,1,1.93,2.52L29,66.52a4.07,4.07,0,0,1-3.15,4.92h0a4.26,4.26,0,0,1-1,.11" transform="translate(0 -9.18)"/></g></g></g></g></svg>