<svg xmlns="http://www.w3.org/2000/svg" xmlns:xlink="http://www.w3.org/1999/xlink" viewBox="0 0 85.99 70.69"><defs><style>.cls-1{fill:none;}.cls-2{clip-path:url(#clip-path);}.cls-3{fill:#f4b52d;}.cls-4{clip-path:url(#clip-path-2);}.cls-5{fill:#2b4591;}</style><clipPath id="clip-path" transform="translate(0 -9.18)"><rect class="cls-1" width="90.61" height="89.05"/></clipPath><clipPath id="clip-path-2" transform="translate(0 -9.18)"><rect class="cls-1" x="12.31" y="23.28" width="73.68" height="41.92"/></clipPath></defs><title>iconPerso</title><g id="Capa_2" data-name="Capa 2"><g id="BIENESTAR_INTERG" data-name="BIENESTAR INTERG"><g id="Capa_12_copia_6" data-name="Capa 12 copia 6"><g class="cls-2"><path class="cls-3" d="M35.34,79.87A35.35,35.35,0,1,0,0,44.53,35.35,35.35,0,0,0,35.34,79.87" transform="translate(0 -9.18)"/><g class="cls-4"><path class="cls-5" d="M49.7,25.23a9.67,9.67,0,1,0,9.67,9.67,9.68,9.68,0,0,0-9.67-9.67m0,21.3A11.63,11.63,0,1,1,61.32,34.9,11.65,11.65,0,0,1,49.7,46.53" transform="translate(0 -9.18)"/><path class="cls-5" d="M68.37,65.19a1,1,0,0,1-1-1,17.69,17.69,0,1,0-35.38,0,1,1,0,0,1-2,0,19.65,19.65,0,1,1,39.29,0,1,1,0,0,1-1,1" transform="translate(0 -9.18)"/><path class="cls-5" d="M27,35.88a6.83,6.83,0,1,0,6.83,6.83A6.83,6.83,0,0,0,27,35.88M27,51.5a8.79,8.79,0,1,1,8.79-8.79A8.8,8.8,0,0,1,27,51.5" transform="translate(0 -9.18)"/><path class="cls-5" d="M13.29,65.19a1,1,0,0,1-1-1A14.67,14.67,0,0,1,35.19,52.05a1,1,0,0,1-1.1,1.62A12.72,12.72,0,0,0,14.26,64.22a1,1,0,0,1-1,1" transform="translate(0 -9.18)"/><path class="cls-5" d="M71.31,35.88a6.83,6.83,0,1,0,6.84,6.83,6.84,6.84,0,0,0-6.84-6.83m0,15.62a8.79,8.79,0,1,1,8.79-8.79,8.79,8.79,0,0,1-8.79,8.79" transform="translate(0 -9.18)"/><path class="cls-5" d="M85,65.19a1,1,0,0,1-1-1,12.73,12.73,0,0,0-19-11.09,1,1,0,1,1-1-1.7A14.68,14.68,0,0,1,86,64.22a1,1,0,0,1-1,1" transform="translate(0 -9.18)"/></g></g></g></g></g></svg>