<svg xmlns="http://www.w3.org/2000/svg" viewBox="0 0 847 308.63"><defs><style>.cls-1{fill:#fff;fill-rule:evenodd;}</style></defs><title>logo</title><g id="Capa_2" data-name="Capa 2"><g id="INICIO"><g id="Capa_3" data-name="Capa 3"><path class="cls-1" d="M422.06,50c57.55,0,104.54,28.54,104.54,63.59s-47,63.49-104.54,63.49-104.55-28.5-104.55-63.49S364.43,50,422.06,50m-.64-50C539.58,0,636,51,636,113.49S539.58,227.05,421.42,227.05s-214.57-51-214.57-113.56S303.2,0,421.42,0m-398,32.07C72.11,3.81,144.75,4.43,198.31,6c23.14.66,92.37,6.35,92.37,6.35L290,59.51c-42.34-3.88-91.42-9.28-133.52-4.69-18.21,2-21.24,17.57-14.6,23.9,9.08,8.66,34.9,14.51,60.5,24.09,28.33,8.7,61.25,24.33,67.74,28.87,38.69,27.54,21.17,50.28,3.06,63.42C217.25,235.63-.13,228.4,0,218.9c.52-38,0-50.29,0-50.29,15.45,5.94,82.9,14.41,139.88,8.69,17.05-1.71,17.21-19.46,8.68-26.66-8.82-7.4-36.24-14.08-56.31-21.65-35.82-13.42-61.86-23.85-68.14-28.72-35.06-27.18-27.84-52.46-.74-68.2m553.65,0C625.76,3.81,698.4,4.43,752,6c23.14.66,94.82,6.35,94.82,6.35L846.65,60c-42.34-3.88-94.38-9.78-136.48-5.19-18.21,2-21.25,17.57-14.61,23.9,9.09,8.66,34.91,14.51,60.5,24.09,28.34,8.7,61.26,24.33,67.75,28.87C862.5,159.22,845,182,826.86,195.1c-56,40.53-273.21,34.39-273.21,23.8,0-39.26.51-50.09.51-50.09,15.45,5.94,82.39,14.21,139.37,8.49,17.05-1.71,17.23-19.47,8.68-26.66C693.4,143.22,666,136.56,645.9,129c-35.83-13.42-63.43-25.15-68.14-28.72-35.39-26.77-27.84-52.46-.74-68.2"/><path class="cls-1" d="M794.82,295.45a9.57,9.57,0,0,1-3.33,1.91,14.52,14.52,0,0,1-4.42.61c-3.82,0-6.79-1.12-9-3.33s-3.21-5.4-3.21-9.32c0-5,1.6-9.09,4.81-12.12s7.43-4.62,12.68-4.62a11.22,11.22,0,0,1,1.67.09c.63.05,1.33.14,2.1.21.06-1.16.17-2.37.21-3.65s0-2.77,0-4.42h10.78c-.56,7.17-.94,13.77-1.25,19.69s-.62,11.49-.84,16.7H794.79Zm1.12-19.39a6.62,6.62,0,0,0-1.38-.37,12.19,12.19,0,0,0-1.3-.09,6.84,6.84,0,0,0-5.47,2.31,9.23,9.23,0,0,0-2,6.25,7.38,7.38,0,0,0,1.25,4.55,4,4,0,0,0,3.33,1.66,4.47,4.47,0,0,0,3.74-1.8,9.19,9.19,0,0,0,1.47-5.27Zm-24.78-6.86c-.5,4.35-.8,8.82-1.07,13.53s-.32,9.45-.32,14.47H759.34v-3.54a12.16,12.16,0,0,1-4.22,3.34,12.71,12.71,0,0,1-5.38,1c-3.71,0-6.41-.73-8.11-2.15s-2.5-3.74-2.5-6.91c0-1.17.09-3.92.35-8.29s.41-8.2.46-11.48H750.6c-.21,2.92-.37,5.55-.47,8s-.23,4.33-.23,5.69c0,2.67.33,4.52.9,5.49a3.23,3.23,0,0,0,3,1.49c2.28,0,3.95-1.26,4.87-3.81s1.41-8.19,1.47-16.82ZM735,260.81c-.59,7.36-1.09,14.05-1.44,20s-.5,11-.5,15.32v1.09H721.91c.63-8.37,1.08-15.4,1.38-21.24s.5-10.82.63-15.15Zm-32.33,36.58c-.79.14-1.56.29-2.3.37s-1.44.13-2.07.13a10.18,10.18,0,0,1-6.78-2.1,7.17,7.17,0,0,1-2.43-5.67,7.84,7.84,0,0,1,2.35-6c1.56-1.49,4.2-2.57,7.79-3.38.39-.08.89-.23,1.47-.37,4.16-.88,6.15-1.84,6.15-3a1.35,1.35,0,0,0-.7-1.37,5.72,5.72,0,0,0-2.49-.4,25.25,25.25,0,0,0-5.21.58,32.32,32.32,0,0,0-5.34,1.66l1.3-8a51.47,51.47,0,0,1,5.21-1.06,45.69,45.69,0,0,1,5.82-.33c4,0,7,.52,9,1.72a5.93,5.93,0,0,1,2.82,5.44V277a12.64,12.64,0,0,1-.07,1.57l-.64,14c0,.32,0,.71,0,1.18v3.48H705.8c.13-1.95.28-3.48.34-4.48s.13-1.88.13-2.31l.28-4.9a9.52,9.52,0,0,1-1.25.33,14.54,14.54,0,0,1-1.74.53l-2.28.55a4.24,4.24,0,0,0-2.2,1.11,2,2,0,0,0-.79,1.7,1.64,1.64,0,0,0,.73,1.52,2.42,2.42,0,0,0,1.82.64,11.63,11.63,0,0,0,1.49-.14,17.23,17.23,0,0,0,2.08-.36Zm-43-9.8a41.25,41.25,0,0,0,6,1.6,25.89,25.89,0,0,0,5.11.54,5,5,0,0,0,2.75-.66,2,2,0,0,0,1-1.7c0-1-1.33-2.53-4-4.56a7.7,7.7,0,0,0-1-.74s0-.07-.07-.07c-6-4.67-8.93-8.65-8.93-11.9a8.19,8.19,0,0,1,3.9-7.28c2.7-1.79,6.3-2.7,10.91-2.7a36.17,36.17,0,0,1,4.35.3c1.61.2,3.43.47,5.48.86l.61,8.27c-2-.47-3.56-.88-4.79-1.08a26,26,0,0,0-3.21-.3,8.1,8.1,0,0,0-3.53.6,2,2,0,0,0-1.2,1.87c0,.95,1.48,2.56,4.4,4.78.44.37.88.67,1.19.91a31.89,31.89,0,0,1,6.43,6,9.08,9.08,0,0,1,1.74,5.27,8.65,8.65,0,0,1-3.9,7.65c-2.64,1.75-6.52,2.6-11.64,2.6-1.49,0-3.17-.1-4.95-.28a50.05,50.05,0,0,1-5.79-.95Zm-24.35,9.21a50.7,50.7,0,0,1-5.16.88,37.67,37.67,0,0,1-4.75.29q-7.26,0-11.08-3.51c-2.55-2.32-3.79-5.68-3.79-10,0-5,1.38-8.9,4.21-11.73s6.75-4.23,11.74-4.23c4.33,0,7.59.91,9.68,2.76s3.16,4.73,3.16,8.53c0,.68-.07,1.47-.15,2.36s-.15,1.9-.3,3H622v.32a.92.92,0,0,0-.07.49,3.75,3.75,0,0,0,1.75,3.48,9.45,9.45,0,0,0,5.19,1.15,24.3,24.3,0,0,0,3.74-.31,21.5,21.5,0,0,0,3.94-.68ZM622,279.67h7.35v-.23a6,6,0,0,0-.86-3.48,2.62,2.62,0,0,0-2.35-1.1,3.53,3.53,0,0,0-2.76,1.23,7.28,7.28,0,0,0-1.38,3.58m-27.53,15.78a10.09,10.09,0,0,1-3.34,1.91,14.75,14.75,0,0,1-4.46.61c-3.79,0-6.78-1.12-8.9-3.33a13.09,13.09,0,0,1-3.32-9.32c0-5,1.62-9.09,4.86-12.12s7.48-4.62,12.66-4.62a12.28,12.28,0,0,1,1.75.09l2.08.21c0-1.16.07-2.37.18-3.65s.08-2.77.08-4.42h10.73c-.48,7.17-.88,13.77-1.27,19.69s-.56,11.49-.81,16.7H594.39Zm1.06-19.39a5.61,5.61,0,0,0-1.36-.37,12.55,12.55,0,0,0-1.32-.09,6.82,6.82,0,0,0-5.46,2.31,9.29,9.29,0,0,0-2,6.25,7.58,7.58,0,0,0,1.23,4.55,4.17,4.17,0,0,0,3.36,1.66,4.46,4.46,0,0,0,3.77-1.8c.91-1.17,1.34-2.9,1.44-5.27Zm-41.89-15.25c-.58,7.36-1,14.05-1.36,20s-.47,11-.47,15.32v1.09H540.61c.59-8.37,1.08-15.4,1.37-21.24s.49-10.82.59-15.15Zm-32.31,36.58c-.78.14-1.5.29-2.25.37s-1.44.13-2.07.13a10,10,0,0,1-6.75-2.1,6.83,6.83,0,0,1-2.46-5.67,7.67,7.67,0,0,1,2.35-6c1.55-1.49,4.15-2.57,7.75-3.38.37-.08.87-.23,1.55-.37,4.08-.88,6.11-1.84,6.11-3a1.34,1.34,0,0,0-.75-1.37,5.43,5.43,0,0,0-2.48-.4,24.27,24.27,0,0,0-5.15.58,29.62,29.62,0,0,0-5.34,1.66l1.23-8a51,51,0,0,1,5.24-1.06,45.85,45.85,0,0,1,5.83-.33c4.06,0,7.05.52,9,1.72a5.94,5.94,0,0,1,3,5.44A5.57,5.57,0,0,1,536,277v1.57l-.7,14v4.66H524.47c.09-1.95.24-3.48.36-4.48s.08-1.88.14-2.31l.28-4.9a10,10,0,0,1-1.28.33c-.42.18-1.05.34-1.68.53l-2.36.55A4.79,4.79,0,0,0,517.7,288a2.25,2.25,0,0,0-.75,1.7,1.78,1.78,0,0,0,.71,1.52,2.6,2.6,0,0,0,1.93.64,10.22,10.22,0,0,0,1.37-.14,15.17,15.17,0,0,0,2.08-.36Zm-21.64-13.51v.52a6.26,6.26,0,0,0,0,.86,7.24,7.24,0,0,0,.71,3.67,3.14,3.14,0,0,0,2.62,1c.31,0,.83-.08,1.74-.19a6.51,6.51,0,0,0,.72-.18l-.63,7.83c-.89.19-1.77.34-2.76.47s-2,.08-3.12.08c-3.33,0-5.84-.73-7.44-2.18s-2.45-3.69-2.45-6.68v-.94l.55-11.69h-4l.3-7.28h4.55l.19-4.47,10-2.22-.38,6.69h6.34l-.38,7.28h-6.13Zm-49,13.32c.47-4.34.85-8.86,1.07-13.48s.3-9.5.3-14.52h10.48v3.5a11.38,11.38,0,0,1,4.12-3.28,13.6,13.6,0,0,1,5.46-1c3.71,0,6.42.72,8.12,2.08s2.55,3.76,2.55,7c0,1.15-.21,3.87-.38,8.29s-.46,8.14-.5,11.43H471.28c.18-2.89.39-5.49.54-8s.21-4.33.21-5.7c0-2.68-.31-4.46-.9-5.52a3.3,3.3,0,0,0-3.06-1.44c-2.32,0-3.91,1.25-4.85,3.86s-1.44,8.13-1.47,16.76Zm-7.55-.4a50.44,50.44,0,0,1-5.09.88,38.71,38.71,0,0,1-4.81.29c-4.82,0-8.54-1.17-11-3.51s-3.91-5.68-3.91-10q0-7.49,4.28-11.73c2.85-2.84,6.74-4.23,11.8-4.23,4.34,0,7.54.91,9.68,2.76s3.13,4.73,3.13,8.53a14.59,14.59,0,0,1-.14,2.36c0,.91-.18,1.9-.32,3h-17v.32a2,2,0,0,0,0,.49,3.75,3.75,0,0,0,1.72,3.48,9.66,9.66,0,0,0,5.3,1.15,25.51,25.51,0,0,0,3.69-.31,23.69,23.69,0,0,0,3.95-.68Zm-13.37-17.13h7.33v-.23a6.39,6.39,0,0,0-.81-3.48,2.68,2.68,0,0,0-2.35-1.1,3.55,3.55,0,0,0-2.78,1.23,7.09,7.09,0,0,0-1.39,3.58m-27.56,15.78a9.44,9.44,0,0,1-3.32,1.91,14.45,14.45,0,0,1-4.41.61,12.11,12.11,0,0,1-9-3.33c-2.12-2.27-3.2-5.4-3.2-9.32a16.09,16.09,0,0,1,4.8-12.12c3.25-3.1,7.5-4.62,12.68-4.62a11.74,11.74,0,0,1,1.71.09c.62.05,1.34.14,2.09.21.05-1.16.14-2.37.18-3.65s.06-2.77.06-4.42h10.72c-.44,7.17-.84,13.77-1.18,19.69s-.65,11.49-.87,16.7H402.16Zm1.11-19.39a7.54,7.54,0,0,0-1.38-.37,12.37,12.37,0,0,0-1.3-.09,6.8,6.8,0,0,0-5.47,2.31,9.39,9.39,0,0,0-2,6.25,7.58,7.58,0,0,0,1.27,4.55,4,4,0,0,0,3.31,1.66,4.31,4.31,0,0,0,3.75-1.8,9.83,9.83,0,0,0,1.51-5.27Zm-24.77-6.43c-.5,4.07-.85,8.32-1.08,12.8s-.37,9.4-.37,14.77H365.91c.42-4.26.76-8.67,1-13.27s.35-9.31.35-14.3Zm-11.07-2.36.31-6.46h11.07l-.31,6.46ZM360.68,297a41.83,41.83,0,0,1-4.32.72,30.38,30.38,0,0,1-3.83.27c-4.46,0-7.89-1.23-10.29-3.63s-3.67-5.87-3.67-10.29c0-4.83,1.39-8.73,4.2-11.5s6.69-4.14,11.67-4.14a25,25,0,0,1,3.65.3,22.93,22.93,0,0,1,4.06.86l.4,8.17a32.19,32.19,0,0,0-3.82-.8,20.8,20.8,0,0,0-2.11-.2,7,7,0,0,0-5.18,1.79,7.22,7.22,0,0,0-1.74,5.21,5.38,5.38,0,0,0,1.66,4.23,6.46,6.46,0,0,0,4.55,1.49,16,16,0,0,0,2.91-.28,28.46,28.46,0,0,0,3.15-.71Zm-27.05,0a43.21,43.21,0,0,1-4.32.72,31.26,31.26,0,0,1-3.87.27c-4.41,0-7.85-1.23-10.26-3.63s-3.71-5.87-3.71-10.29c0-4.83,1.45-8.73,4.25-11.5s6.73-4.14,11.68-4.14a24.49,24.49,0,0,1,3.6.3,23,23,0,0,1,4.12.86l.36,8.17a33,33,0,0,0-3.82-.8,20,20,0,0,0-2.12-.2,6.86,6.86,0,0,0-5.12,1.79,7.24,7.24,0,0,0-1.79,5.21,5.48,5.48,0,0,0,1.66,4.23,6.58,6.58,0,0,0,4.57,1.49,15.91,15.91,0,0,0,2.86-.28,25.33,25.33,0,0,0,3.21-.71Zm-48,.93c-6.79,0-12-1.54-15.74-4.79s-5.56-7.72-5.56-13.42c0-6.15,1.87-10.95,5.78-14.41s9.14-5.26,15.94-5.26c7.06,0,12.46,1.58,16.25,4.7s5.62,7.6,5.62,13.5c0,6.19-2,11-5.9,14.48s-9.35,5.2-16.39,5.2m-9.39-19c0,3.51.78,6.15,2.48,7.92s4.12,2.62,7.45,2.62a9.41,9.41,0,0,0,7.27-2.88,12.19,12.19,0,0,0,2.59-8.14c0-3.32-.87-5.82-2.55-7.51s-4.1-2.54-7.31-2.54-5.62.91-7.33,2.76-2.6,4.46-2.6,7.77m-64.85,4.8c0-4.8,1.52-8.5,4.45-11.21s7-4.12,12.12-4.12c4.89,0,8.68,1.2,11.37,3.65s4,5.9,4,10.44c0,4.81-1.48,8.59-4.4,11.31s-6.93,4.1-12,4.1-8.79-1.21-11.47-3.7-4.1-5.93-4.1-10.47m16.13-7.88a4.41,4.41,0,0,0-3.84,1.91,10.79,10.79,0,0,0-1.26,5.79,9.32,9.32,0,0,0,1.17,5.13,4.25,4.25,0,0,0,3.68,1.66,4.38,4.38,0,0,0,3.78-1.88c.89-1.19,1.29-3,1.29-5.42,0-2.57-.35-4.39-1.12-5.51a4.1,4.1,0,0,0-3.7-1.68M208,269.63c-.49,4.07-.87,8.32-1.1,12.8s-.31,9.4-.31,14.77h-11.3c.4-4.26.74-8.67,1-13.27s.36-9.31.36-14.3Zm-11.13-2.36.35-6.46h11.06l-.28,6.46ZM190,297c-1.5.32-2.95.57-4.26.72a32.9,32.9,0,0,1-3.94.27c-4.4,0-7.82-1.23-10.27-3.63s-3.67-5.87-3.67-10.29c0-4.83,1.43-8.73,4.25-11.5s6.73-4.14,11.66-4.14a23.94,23.94,0,0,1,3.6.3,23.25,23.25,0,0,1,4.13.86l.33,8.17a29.63,29.63,0,0,0-3.77-.8c-.83-.09-1.53-.2-2.08-.2a7,7,0,0,0-5.21,1.79,7.4,7.4,0,0,0-1.72,5.21,5.41,5.41,0,0,0,1.6,4.23,6.6,6.6,0,0,0,4.62,1.49,16.45,16.45,0,0,0,2.86-.28,29.78,29.78,0,0,0,3.17-.71Zm-25.67-27.41c-.49,4.07-.78,8.32-1.05,12.8s-.35,9.4-.35,14.77H151.65c.46-4.26.81-8.67,1-13.27s.29-9.31.29-14.3Zm-11-2.36.32-6.46h11.09l-.37,6.46ZM127.09,297.2c-.61-2.44-1.68-6.13-3.27-11.14s-3.4-10.5-5.51-16.86h10.8c.22.9.47,1.94.81,3.23s.74,2.73,1.18,4.28l3,11.05,4.11-11.05c.36-.92.72-2,1.15-3.36s.81-2.65,1.21-4.15h10.55c-3,7.13-5.41,13-7.25,17.59s-3.22,8.08-4.05,10.41ZM116.8,277.1l-.62,0h-.93a8.17,8.17,0,0,0-4.44,1.08,5.77,5.77,0,0,0-2.51,3.15,21.8,21.8,0,0,0-.81,4.32q-.18,2.87-.44,11.57h-11c.48-4.16.75-8.37,1-12.55s.3-8.42.3-12.61V269.2h9.64l-.16,3.95a9.9,9.9,0,0,1,3.33-3.6,8.93,8.93,0,0,1,4.53-1.08c.38,0,.85,0,1.57.06a.32.32,0,0,0,.19.05ZM88.51,296.8a48.93,48.93,0,0,1-5.11.88,37.8,37.8,0,0,1-4.78.29c-4.81,0-8.52-1.17-11-3.51s-3.86-5.68-3.86-10c0-5,1.43-8.9,4.26-11.73s6.77-4.23,11.77-4.23c4.31,0,7.51.91,9.64,2.76s3.19,4.73,3.19,8.53c0,.68-.06,1.47-.14,2.36s-.18,1.9-.34,3h-17a1,1,0,0,0,0,.32,2,2,0,0,0,0,.49,3.78,3.78,0,0,0,1.71,3.48A9.61,9.61,0,0,0,82,290.53a26.22,26.22,0,0,0,3.82-.31,21.76,21.76,0,0,0,3.88-.68ZM75.18,279.67h7.3v-.23a6.23,6.23,0,0,0-.79-3.48,2.77,2.77,0,0,0-2.4-1.1,3.42,3.42,0,0,0-2.72,1.23,6.84,6.84,0,0,0-1.39,3.58m-41.61,7.92a51.17,51.17,0,0,0,6,1.6,26.83,26.83,0,0,0,5.14.54,5,5,0,0,0,2.76-.66,2,2,0,0,0,1-1.7c0-1-1.33-2.53-4-4.56a11.05,11.05,0,0,0-1-.74s0-.07-.14-.07c-5.93-4.67-8.89-8.65-8.89-11.9a8.2,8.2,0,0,1,3.86-7.28c2.68-1.79,6.32-2.7,11-2.7a36.45,36.45,0,0,1,4.35.3c1.58.2,3.37.47,5.46.86l.67,8.27c-2-.47-3.61-.88-4.83-1.08a25.47,25.47,0,0,0-3.23-.3,8.11,8.11,0,0,0-3.52.6,2,2,0,0,0-1.2,1.87c0,.95,1.42,2.56,4.4,4.78l1.22.91a30.79,30.79,0,0,1,6.38,6,9.21,9.21,0,0,1,1.73,5.27,8.57,8.57,0,0,1-3.9,7.65c-2.56,1.75-6.49,2.6-11.61,2.6a48.76,48.76,0,0,1-4.94-.28,48,48,0,0,1-5.79-.95ZM0,246.21H847v62.42H0Z"/></g></g></g></svg>