<svg xmlns="http://www.w3.org/2000/svg" xmlns:xlink="http://www.w3.org/1999/xlink" viewBox="0 0 76.42 77.31"><defs><style>.cls-1,.cls-4{fill:none;}.cls-2{clip-path:url(#clip-path);}.cls-3{fill:#e26a95;}.cls-4{stroke:#024697;stroke-miterlimit:10;stroke-width:1.99px;}</style><clipPath id="clip-path" transform="translate(0 -5.47)"><rect class="cls-1" width="90.64" height="89.08"/></clipPath></defs><title>modelo</title><g id="Capa_2" data-name="Capa 2"><g id="VALOR_CORP" data-name="VALOR CORP"><g id="Capa_12_copia_3" data-name="Capa 12 copia 3"><g class="cls-2"><path class="cls-3" d="M35.36,79.9A35.36,35.36,0,1,0,0,44.54,35.36,35.36,0,0,0,35.36,79.9" transform="translate(0 -5.47)"/><path class="cls-4" d="M44,41.31c0-3-12.28-14.52-25.33-17.71m0,0S33.41,20,37.35,33.35C37.35,33.35,26.07,38.69,18.63,23.6ZM44,41.31c0-3,12.28-14.52,25.34-17.71m0,0S54.54,20,50.59,33.35C50.59,33.35,61.87,38.69,69.32,23.6ZM44,7.1s-9.87,11.77,0,21.43C44,28.53,53.78,20.71,44,7.1Zm0,35.43V8.29M26.15,46a12.17,12.17,0,0,0,4.66,2c2.18.25,7.14-1.12,9.25.36M37.15,80.19l-.71-.53a1.79,1.79,0,0,1-.4-2.48l2.43-3.43a1.72,1.72,0,0,1,2.44-.4l.71.53a1.79,1.79,0,0,1,.4,2.48l-2.43,3.43A1.72,1.72,0,0,1,37.15,80.19ZM32.7,78.37,32,77.84a1.8,1.8,0,0,1-.39-2.49l3.18-4.49a1.74,1.74,0,0,1,2.44-.4l.71.53a1.8,1.8,0,0,1,.4,2.48L35.13,78A1.73,1.73,0,0,1,32.7,78.37Zm-3.52-3.24-.72-.53a1.79,1.79,0,0,1-.39-2.48l3.18-4.5a1.74,1.74,0,0,1,2.44-.4l.71.53a1.81,1.81,0,0,1,.4,2.48l-3.19,4.5A1.73,1.73,0,0,1,29.18,75.13Zm-3.09-3.89-.72-.53A1.81,1.81,0,0,1,25,68.22L27.3,65a1.73,1.73,0,0,1,2.43-.4l.72.53a1.79,1.79,0,0,1,.39,2.48l-2.31,3.27A1.73,1.73,0,0,1,26.09,71.24Zm-9.44-7.1-1-.42a2.24,2.24,0,0,1-1.2-2.89L21,44.16a2.16,2.16,0,0,1,2.83-1.23l1,.42a2.23,2.23,0,0,1,1.21,2.89l-6.6,16.67A2.16,2.16,0,0,1,16.65,64.14Zm57.53-2-1,.48a2.15,2.15,0,0,1-2.9-1l-7.63-16.2a2.24,2.24,0,0,1,1-3l1-.49a2.16,2.16,0,0,1,2.9,1L75.2,59.18A2.23,2.23,0,0,1,74.18,62.14Zm-14.83,7.5s2.83,2.41,4.55.44c1.33-1.53,1.61-3.12,0-4.73m-9.29,8.3s2.81,2,4.77-.52c1.83-2.37-.61-4.7-3.61-6.68M49.36,77.36s3,2.4,5.21.08C56.46,75.45,55,73,52,71M19.31,62.38l6.47,4.72m15,11,3.56,2.63c1.77,1.36,3.49,1.36,4.66.34s1.55-3.34-1.45-5.6M63.46,45.87s-3,1.56-4.17,2-13.63-2.38-15.4-2S32.67,54.47,32,55.53s4.16,5.47,11.06-.74c0,0,3.69,5.56,13.31,4.57L64.68,66,70,62" transform="translate(0 -5.47)"/></g></g></g></g></svg>