<svg xmlns="http://www.w3.org/2000/svg" xmlns:xlink="http://www.w3.org/1999/xlink" viewBox="0 0 75.64 70.71"><defs><style>.cls-1{fill:none;}.cls-2{clip-path:url(#clip-path);}.cls-3{fill:#88ccd3;}.cls-4{fill:#024697;}</style><clipPath id="clip-path" transform="translate(0 -9.18)"><rect class="cls-1" width="90.64" height="89.08"/></clipPath></defs><title>p-2</title><g id="Capa_2" data-name="Capa 2"><g id="EXCELENCIA"><g id="Capa_12_copia_9" data-name="Capa 12 copia 9"><g class="cls-2"><path class="cls-3" d="M35.36,79.9A35.36,35.36,0,1,0,0,44.54,35.36,35.36,0,0,0,35.36,79.9" transform="translate(0 -9.18)"/><path class="cls-4" d="M63.45,64.42a3.2,3.2,0,0,1-1.73-.5L51.6,57.45a.71.71,0,0,1-.21-1,.74.74,0,0,1,1-.21l10.11,6.47a1.73,1.73,0,0,0,1.33.22,1.65,1.65,0,0,0,1.06-.81,1.62,1.62,0,0,0-.57-2.19l-14-8.66a4,4,0,0,0-2.1-.6H41.59v1.72a3,3,0,0,1-6,0V47.45a2,2,0,0,1,1.15-1.78L42.52,43a.71.71,0,0,1,.32-.07H58.57a.72.72,0,1,1,0,1.44H43L37.39,47a.55.55,0,0,0-.3.48v4.94a1.52,1.52,0,0,0,3,0V50a.73.73,0,0,1,.73-.72h7.36a5.41,5.41,0,0,1,2.88.82l14,8.65a3.06,3.06,0,0,1,1.08,4.12,3.16,3.16,0,0,1-2,1.51,3.2,3.2,0,0,1-.75.09" transform="translate(0 -9.18)"/><path class="cls-4" d="M57.59,66.67a3.33,3.33,0,0,1-1.83-.55l-7.15-4.71a.72.72,0,0,1-.2-1,.76.76,0,0,1,1-.2l7.14,4.71a1.83,1.83,0,0,0,1.39.26,1.78,1.78,0,0,0,.63-3.26l-6.49-4.15a.71.71,0,0,1-.21-1,.75.75,0,0,1,1-.21l6.49,4.15a3.21,3.21,0,0,1,1,4.47,3.29,3.29,0,0,1-2.11,1.42,3.21,3.21,0,0,1-.68.07" transform="translate(0 -9.18)"/><path class="cls-4" d="M52.69,69.44a3.24,3.24,0,0,1-1.76-.51L46,65.84a.72.72,0,0,1-.22-1,.75.75,0,0,1,1-.22l4.91,3.1a1.83,1.83,0,0,0,2.41-.42,1.76,1.76,0,0,0,.34-1.36,1.72,1.72,0,0,0-.77-1.17l-3.2-2.11a.71.71,0,0,1-.2-1,.75.75,0,0,1,1-.2l3.2,2.11a3.16,3.16,0,0,1,1.4,2.13,3.12,3.12,0,0,1-.61,2.46,3.29,3.29,0,0,1-2.63,1.28" transform="translate(0 -9.18)"/><path class="cls-4" d="M46.7,71.38A3.24,3.24,0,0,1,45,70.92l-.53-.32a.71.71,0,0,1-.24-1,.73.73,0,0,1,1-.24l.54.32a1.74,1.74,0,0,0,2.29-.46A1.62,1.62,0,0,0,48.38,68a1.65,1.65,0,0,0-.75-1.1l-1.2-.76a.72.72,0,0,1-.22-1,.75.75,0,0,1,1-.21l1.2.76a3.06,3.06,0,0,1,1.4,2,3,3,0,0,1-.53,2.4,3.21,3.21,0,0,1-2.6,1.31" transform="translate(0 -9.18)"/><path class="cls-4" d="M42.19,72.08a3,3,0,0,1-1.85-.63,2.9,2.9,0,0,1-1.1-2A2.86,2.86,0,0,1,40,67.25l.24-.27a3,3,0,0,1,4-.34,2.92,2.92,0,0,1,1.11,2.06,2.84,2.84,0,0,1-.77,2.18l-.24.26a3,3,0,0,1-2.18.94m.24-4.62a1.5,1.5,0,0,0-1.1.49l-.24.27a1.4,1.4,0,0,0-.38,1.08,1.47,1.47,0,0,0,.55,1,1.51,1.51,0,0,0,2-.15l.25-.27a1.43,1.43,0,0,0,.39-1.09,1.47,1.47,0,0,0-.54-1,1.52,1.52,0,0,0-1-.34" transform="translate(0 -9.18)"/><path class="cls-4" d="M38.05,70.07a3,3,0,0,1-1.88-.66,2.87,2.87,0,0,1-.34-4.17l3.1-3.44a3,3,0,0,1,4.1-.32l-.43.59.47-.56a2.86,2.86,0,0,1,1.07,2,2.8,2.8,0,0,1-.75,2.16l-3.14,3.41a3,3,0,0,1-2.2,1m3.1-7.81a1.48,1.48,0,0,0-1.11.5l-3.1,3.44a1.43,1.43,0,0,0-.37,1.08,1.4,1.4,0,0,0,.54,1,1.5,1.5,0,0,0,2-.15l3.14-3.41a1.43,1.43,0,0,0-.16-2.1,1.55,1.55,0,0,0-1-.37" transform="translate(0 -9.18)"/><path class="cls-4" d="M35,66.85a3.07,3.07,0,0,1-1.86-.63A2.92,2.92,0,0,1,32.65,62l1.06-1.28a3.11,3.11,0,0,1,4.23-.48,3,3,0,0,1,1.16,2.08,2.93,2.93,0,0,1-.75,2.26l-1.1,1.23a3,3,0,0,1-2.26,1m1.08-5.74a1.58,1.58,0,0,0-1.22.56L33.8,63a1.43,1.43,0,0,0-.34,1.12,1.53,1.53,0,0,0,.58,1,1.57,1.57,0,0,0,2.1-.19l1.11-1.23A1.52,1.52,0,0,0,37,61.42a1.6,1.6,0,0,0-1-.31" transform="translate(0 -9.18)"/><path class="cls-4" d="M31.9,63.6a2.84,2.84,0,0,1-1.68-.55,2.72,2.72,0,0,1-.49-4l.47-.55a2.87,2.87,0,0,1,3.87-.42,2.77,2.77,0,0,1,1.09,1.86,2.74,2.74,0,0,1-.6,2.07l-.46.56a2.84,2.84,0,0,1-2.2,1M32.36,59a1.36,1.36,0,0,0-1,.47l-.48.55a1.26,1.26,0,0,0-.3,1,1.29,1.29,0,0,0,.53.91A1.36,1.36,0,0,0,33,61.65l.46-.56a1.3,1.3,0,0,0,.29-1,1.33,1.33,0,0,0-.52-.89,1.39,1.39,0,0,0-.82-.27" transform="translate(0 -9.18)"/><path class="cls-4" d="M30.77,59.67a.71.71,0,0,1-.53-.22l-4.16-4.23A.7.7,0,0,1,26,54.3l7.48-10.38a.75.75,0,0,1,.6-.31h7.29a.73.73,0,1,1,0,1.45H34.47l-6.91,9.59,3.74,3.8a.72.72,0,0,1-.53,1.22" transform="translate(0 -9.18)"/><path class="cls-4" d="M68.5,57.46a2.56,2.56,0,0,1-2.12-1.11c-1.88-2.72-5.95-8.74-8.2-12.09a2.48,2.48,0,0,1,.58-3.39l6.66-5a.75.75,0,0,1,1,.13.73.73,0,0,1-.14,1l-6.65,5a1.06,1.06,0,0,0-.25,1.45c2.25,3.34,6.31,9.35,8.19,12.07a1.1,1.1,0,0,0,1.49.3l5.42-3.33a.74.74,0,0,1,1,.22.71.71,0,0,1-.23,1l-5.42,3.34a2.61,2.61,0,0,1-1.37.39" transform="translate(0 -9.18)"/><path class="cls-4" d="M25.13,56.18a2.64,2.64,0,0,1-1.27-.33L18.79,53a.71.71,0,0,1-.28-1,.74.74,0,0,1,1-.27l5.07,2.8A1.11,1.11,0,0,0,26,54.28l7.6-10.66a1.05,1.05,0,0,0-.19-1.44l-7.3-5.89a.72.72,0,0,1-.1-1,.75.75,0,0,1,1-.1l7.3,5.9a2.47,2.47,0,0,1,.46,3.38L27.23,55.1a2.57,2.57,0,0,1-2.1,1.08" transform="translate(0 -9.18)"/><path class="cls-4" d="M63,59a.75.75,0,0,1-.52-.21.72.72,0,0,1,0-1l3.31-3.3a.74.74,0,0,1,1,0,.71.71,0,0,1,0,1l-3.31,3.3A.7.7,0,0,1,63,59" transform="translate(0 -9.18)"/><path class="cls-4" d="M22.68,52.37a.74.74,0,0,1-.42-.13.7.7,0,0,1-.18-1L26,45.62a.75.75,0,0,1,1-.19.71.71,0,0,1,.19,1l-3.93,5.62a.72.72,0,0,1-.61.32" transform="translate(0 -9.18)"/><path class="cls-4" d="M70,53.16a.74.74,0,0,1-.62-.34L65.68,47a.71.71,0,0,1,.23-1,.75.75,0,0,1,1,.23l3.71,5.83a.72.72,0,0,1-.23,1,.79.79,0,0,1-.39.11" transform="translate(0 -9.18)"/><path class="cls-4" d="M47,39.8a12.38,12.38,0,1,1,0-24.75,12.64,12.64,0,0,1,8.92,3.63.71.71,0,0,1,0,1,.75.75,0,0,1-1,0A11.2,11.2,0,0,0,47,16.5,10.93,10.93,0,1,0,58.16,27.42,10.54,10.54,0,0,0,58,25.56a.73.73,0,0,1,1.45-.24,11.39,11.39,0,0,1,.19,2.1A12.51,12.51,0,0,1,47,39.8" transform="translate(0 -9.18)"/><path class="cls-4" d="M38.53,26.06l-.18,0a.72.72,0,0,1-.53-.88,9.43,9.43,0,0,1,9.2-7,9.54,9.54,0,0,1,6.71,2.73.71.71,0,0,1,0,1,.76.76,0,0,1-1,0,8.07,8.07,0,0,0-13.43,3.64.75.75,0,0,1-.72.55" transform="translate(0 -9.18)"/><path class="cls-4" d="M47,35.58a.75.75,0,0,1-.49-.19l-7.86-6.76a.71.71,0,0,1-.07-1,.75.75,0,0,1,1-.07l7.28,6.27L58.32,19.66a.76.76,0,0,1,1-.12.72.72,0,0,1,.12,1L47.61,35.3a.74.74,0,0,1-.52.27H47" transform="translate(0 -9.18)"/></g></g></g></g></svg>