<svg xmlns="http://www.w3.org/2000/svg" xmlns:xlink="http://www.w3.org/1999/xlink" viewBox="0 0 90.21 70.69"><defs><style>.cls-1{fill:none;}.cls-2{clip-path:url(#clip-path);}.cls-3{fill:#88ccd3;}.cls-4{fill:#024697;}</style><clipPath id="clip-path" transform="translate(0 -9.18)"><rect class="cls-1" width="90.61" height="89.05"/></clipPath></defs><title>P</title><g id="Capa_2" data-name="Capa 2"><g id="EXCELENCIA"><g id="Capa_12_copia_9" data-name="Capa 12 copia 9"><g class="cls-2"><path class="cls-3" d="M35.34,79.87A35.35,35.35,0,1,0,0,44.53,35.35,35.35,0,0,0,35.34,79.87" transform="translate(0 -9.18)"/><path class="cls-4" d="M18.88,66.26a1.21,1.21,0,0,1-1.21-1.21V57.3a1.21,1.21,0,1,1,2.42,0v7.75a1.21,1.21,0,0,1-1.21,1.21" transform="translate(0 -9.18)"/><path class="cls-4" d="M14.53,66.26a1.21,1.21,0,0,1-1.21-1.21V52.87a3.79,3.79,0,0,1,3.78-3.79h2a1.22,1.22,0,1,1,0,2.43h-2a1.36,1.36,0,0,0-1.36,1.36V65.05a1.21,1.21,0,0,1-1.21,1.21" transform="translate(0 -9.18)"/><path class="cls-4" d="M28.65,66.26a1.21,1.21,0,0,1-1.21-1.21V57.36a1.22,1.22,0,0,1,2.43,0v7.69a1.22,1.22,0,0,1-1.22,1.21" transform="translate(0 -9.18)"/><path class="cls-4" d="M33,66.26a1.21,1.21,0,0,1-1.21-1.21V52.93a1.36,1.36,0,0,0-1.36-1.36h-2a1.22,1.22,0,0,1,0-2.43h2a3.79,3.79,0,0,1,3.79,3.79V65.05A1.22,1.22,0,0,1,33,66.26" transform="translate(0 -9.18)"/><path class="cls-4" d="M23.77,48.37A5.37,5.37,0,1,1,29.13,43a5.38,5.38,0,0,1-5.36,5.37m0-8.31A2.95,2.95,0,1,0,26.71,43a2.94,2.94,0,0,0-2.94-2.94" transform="translate(0 -9.18)"/><path class="cls-4" d="M46.87,65.86a1.21,1.21,0,0,1-1.21-1.21V56.9a1.22,1.22,0,1,1,2.43,0v7.75a1.21,1.21,0,0,1-1.22,1.21" transform="translate(0 -9.18)"/><path class="cls-4" d="M42.52,65.86a1.21,1.21,0,0,1-1.21-1.21V52.47a3.79,3.79,0,0,1,3.79-3.79h2a1.22,1.22,0,0,1,0,2.43h-2a1.36,1.36,0,0,0-1.36,1.36V64.65a1.22,1.22,0,0,1-1.22,1.21" transform="translate(0 -9.18)"/><path class="cls-4" d="M56.65,65.86a1.22,1.22,0,0,1-1.22-1.21V57a1.22,1.22,0,1,1,2.43,0v7.69a1.21,1.21,0,0,1-1.21,1.21" transform="translate(0 -9.18)"/><path class="cls-4" d="M61,65.86a1.21,1.21,0,0,1-1.21-1.21V52.53a1.37,1.37,0,0,0-1.37-1.36h-2a1.22,1.22,0,1,1,0-2.43h2a3.79,3.79,0,0,1,3.79,3.79V64.65A1.21,1.21,0,0,1,61,65.86" transform="translate(0 -9.18)"/><path class="cls-4" d="M51.76,48a5.37,5.37,0,1,1,5.37-5.37A5.38,5.38,0,0,1,51.76,48m0-8.31A2.94,2.94,0,1,0,54.7,42.6a2.94,2.94,0,0,0-2.94-2.94" transform="translate(0 -9.18)"/><path class="cls-4" d="M74.87,65.46a1.22,1.22,0,0,1-1.22-1.21V56.49a1.22,1.22,0,0,1,2.43,0v7.76a1.21,1.21,0,0,1-1.21,1.21" transform="translate(0 -9.18)"/><path class="cls-4" d="M70.52,65.46a1.22,1.22,0,0,1-1.22-1.21V52.07a3.79,3.79,0,0,1,3.79-3.79h2a1.22,1.22,0,1,1,0,2.43h-2a1.36,1.36,0,0,0-1.36,1.36V64.25a1.21,1.21,0,0,1-1.21,1.21" transform="translate(0 -9.18)"/><path class="cls-4" d="M84.64,65.46a1.21,1.21,0,0,1-1.21-1.21v-7.7a1.22,1.22,0,0,1,2.43,0v7.7a1.22,1.22,0,0,1-1.22,1.21" transform="translate(0 -9.18)"/><path class="cls-4" d="M89,65.46a1.21,1.21,0,0,1-1.21-1.21V52.13a1.36,1.36,0,0,0-1.36-1.36h-2a1.22,1.22,0,1,1,0-2.43h2a3.79,3.79,0,0,1,3.79,3.79V64.25A1.22,1.22,0,0,1,89,65.46" transform="translate(0 -9.18)"/><path class="cls-4" d="M79.76,47.57a5.37,5.37,0,1,1,5.36-5.37,5.38,5.38,0,0,1-5.36,5.37m0-8.31A2.94,2.94,0,1,0,82.7,42.2a2.94,2.94,0,0,0-2.94-2.94" transform="translate(0 -9.18)"/><path class="cls-4" d="M58.05,28.23H45.47a3.13,3.13,0,0,1,0-6.25H58.05a3.13,3.13,0,0,1,0,6.25M45.47,24.41a.7.7,0,0,0,0,1.39H58.05a.7.7,0,0,0,0-1.39Z" transform="translate(0 -9.18)"/><path class="cls-4" d="M79.76,34.26A1.22,1.22,0,0,1,78.54,33V28.42A2.42,2.42,0,0,0,76.12,26H65.27a1.22,1.22,0,0,1,0-2.43H76.12A4.86,4.86,0,0,1,81,28.42V33a1.22,1.22,0,0,1-1.21,1.22" transform="translate(0 -9.18)"/><path class="cls-4" d="M23.77,34.26A1.22,1.22,0,0,1,22.55,33V28.42a4.86,4.86,0,0,1,4.86-4.85H38.72a1.22,1.22,0,0,1,0,2.43H27.41A2.42,2.42,0,0,0,25,28.42V33a1.22,1.22,0,0,1-1.21,1.22" transform="translate(0 -9.18)"/><path class="cls-4" d="M51.76,35.76a1.21,1.21,0,0,1-1.21-1.21V31A1.21,1.21,0,1,1,53,31v3.57a1.21,1.21,0,0,1-1.21,1.21" transform="translate(0 -9.18)"/></g></g></g></g></svg>