<svg xmlns="http://www.w3.org/2000/svg" xmlns:xlink="http://www.w3.org/1999/xlink" viewBox="0 0 77.05 70.71"><defs><style>.cls-1,.cls-4{fill:none;}.cls-2{clip-path:url(#clip-path);}.cls-3{fill:#e26a95;}.cls-4{stroke:#024697;stroke-miterlimit:10;stroke-width:2.75px;}</style><clipPath id="clip-path" transform="translate(0 -9.18)"><rect class="cls-1" width="90.64" height="89.08"/></clipPath></defs><title>pilares</title><g id="Capa_2" data-name="Capa 2"><g id="VALOR_CORP" data-name="VALOR CORP"><g id="Capa_12_copia_3" data-name="Capa 12 copia 3"><g class="cls-2"><path class="cls-3" d="M35.36,79.9A35.36,35.36,0,1,0,0,44.54,35.36,35.36,0,0,0,35.36,79.9" transform="translate(0 -9.18)"/><path class="cls-4" d="M75.11,43.26l-26.84-27,0,0L45.15,13l0,0,0,0L42,16.21l0,0-26.84,27,3.15,3.17,26.84-27L72,46.43Zm-7.77-1.49V71.71H22.91V41.77M57.2,46.34A6.14,6.14,0,0,0,45.12,48a6.14,6.14,0,0,0-12.07-1.62A5.42,5.42,0,0,0,32.83,48C32.83,56.17,45.12,63,45.12,63S57.42,56.17,57.42,48A5.76,5.76,0,0,0,57.2,46.34Z" transform="translate(0 -9.18)"/></g></g></g></g></svg>