<svg xmlns="http://www.w3.org/2000/svg" xmlns:xlink="http://www.w3.org/1999/xlink" viewBox="0 0 76.1 70.71"><defs><style>.cls-1{fill:none;}.cls-2{clip-path:url(#clip-path);}.cls-3{fill:#88ccd3;}.cls-4{fill:#024697;}</style><clipPath id="clip-path" transform="translate(0 -9.18)"><rect class="cls-1" width="90.64" height="89.08"/></clipPath></defs><title>R</title><g id="Capa_2" data-name="Capa 2"><g id="EXCELENCIA"><g id="Capa_12_copia_9" data-name="Capa 12 copia 9"><g class="cls-2"><path class="cls-3" d="M35.36,79.9A35.36,35.36,0,1,0,0,44.54,35.36,35.36,0,0,0,35.36,79.9" transform="translate(0 -9.18)"/><path class="cls-4" d="M49,53.78a9,9,0,1,1,9-9,9,9,0,0,1-9,9M49,37a7.76,7.76,0,1,0,7.76,7.76A7.77,7.77,0,0,0,49,37" transform="translate(0 -9.18)"/><path class="cls-4" d="M29.52,30.47a5.3,5.3,0,1,1,3.76-1.55,5.33,5.33,0,0,1-3.76,1.55m0-9.38a4.08,4.08,0,1,0,2.89,1.2,4.06,4.06,0,0,0-2.89-1.2" transform="translate(0 -9.18)"/><path class="cls-4" d="M70.14,29.81a5.3,5.3,0,1,1,3.76-1.55,5.28,5.28,0,0,1-3.76,1.55m0-9.37A4.07,4.07,0,1,0,73,21.63a4.09,4.09,0,0,0-2.89-1.19" transform="translate(0 -9.18)"/><path class="cls-4" d="M70.8,70.87a5.3,5.3,0,1,1,3.75-1.55,5.29,5.29,0,0,1-3.75,1.55m0-9.38a4.08,4.08,0,1,0,2.88,1.19,4.07,4.07,0,0,0-2.88-1.19" transform="translate(0 -9.18)"/><path class="cls-4" d="M36.75,43.41a4,4,0,0,1-.49,0l-6.4-1.14a2.59,2.59,0,0,1-2.08-2L25.6,28.6a.62.62,0,0,1,1.21-.23L29,40a1.36,1.36,0,0,0,1.1,1l6.39,1.14a1.58,1.58,0,0,0,1.86-1.56,1.57,1.57,0,0,0-1.2-1.54l-4.87-1.2a.63.63,0,0,1-.46-.48L30.92,33a.61.61,0,0,1,.34-.68,11.24,11.24,0,0,0,5.4-5.4.63.63,0,0,1,.68-.34l4.4.88a.61.61,0,0,1,.47.46l1.21,4.87a1.58,1.58,0,0,0,3.09-.66l-1.13-6.39a1.39,1.39,0,0,0-1.05-1.1l-11.6-2.16a.62.62,0,0,1-.49-.72.6.6,0,0,1,.71-.49l11.63,2.17a2.61,2.61,0,0,1,2,2.09l1.13,6.39a2.81,2.81,0,0,1-5.5,1.16l-1.11-4.49-3.55-.71a12.57,12.57,0,0,1-5.34,5.34l.71,3.56,4.49,1.11a2.81,2.81,0,0,1-.67,5.54" transform="translate(0 -9.18)"/><path class="cls-4" d="M65.3,68.19h-.11L53.56,66a2.62,2.62,0,0,1-2-2.09l-1.13-6.39a2.82,2.82,0,0,1,.62-2.3,2.81,2.81,0,0,1,4.88,1.13L57,60.86l3.56.71a12.46,12.46,0,0,1,5.34-5.34l-.71-3.56-4.5-1.11a2.81,2.81,0,0,1,1.17-5.5l6.39,1.14a2.59,2.59,0,0,1,2.08,2l2.18,11.65a.62.62,0,1,1-1.21.23L69.16,49.43a1.35,1.35,0,0,0-1.1-1l-6.39-1.14a1.59,1.59,0,0,0-1.29.35A1.58,1.58,0,0,0,61,50.37l4.87,1.2a.61.61,0,0,1,.45.48l.89,4.4a.62.62,0,0,1-.35.68,11.27,11.27,0,0,0-5.39,5.4.64.64,0,0,1-.68.34L56.41,62a.63.63,0,0,1-.48-.46l-1.2-4.87a1.58,1.58,0,0,0-1.54-1.2A1.56,1.56,0,0,0,52,56a1.6,1.6,0,0,0-.35,1.3l1.13,6.39a1.39,1.39,0,0,0,1.05,1.1L65.42,67a.63.63,0,0,1,.49.72.62.62,0,0,1-.61.5" transform="translate(0 -9.18)"/><path class="cls-4" d="M64.23,38.25a.6.6,0,0,1-.56-.36,16.09,16.09,0,0,0-3.21-4.57,15.78,15.78,0,0,0-4.57-3.2A.62.62,0,0,1,56.41,29a17.22,17.22,0,0,1,8.37,8.38.61.61,0,0,1-.29.81.65.65,0,0,1-.26.06" transform="translate(0 -9.18)"/><path class="cls-4" d="M42,60.48a.6.6,0,0,1-.26,0,17.37,17.37,0,0,1-8.37-8.37.62.62,0,0,1,.3-.82.62.62,0,0,1,.82.3,16.06,16.06,0,0,0,7.77,7.77.62.62,0,0,1,.3.82.63.63,0,0,1-.56.35" transform="translate(0 -9.18)"/><path class="cls-4" d="M32.56,48a.61.61,0,0,1-.6-.52A17.48,17.48,0,0,1,32,42a.63.63,0,0,1,.25-.4.61.61,0,0,1,.47-.11l3.79.68a1.62,1.62,0,0,0,1.3-.35,1.6,1.6,0,0,0,.56-1.21,1.57,1.57,0,0,0-1.2-1.54l-3.34-.82a.63.63,0,0,1-.41-.34.59.59,0,0,1,0-.52,17.1,17.1,0,0,1,3.43-4.93A17.39,17.39,0,0,1,41.73,29a.62.62,0,0,1,.53,0,.59.59,0,0,1,.33.41l.82,3.34a1.58,1.58,0,0,0,3.1-.65l-.67-3.8a.58.58,0,0,1,.11-.46.61.61,0,0,1,.4-.26,17.72,17.72,0,0,1,5.44,0,.61.61,0,1,1-.19,1.21,16.5,16.5,0,0,0-4.44-.08l.56,3.17a2.81,2.81,0,0,1-5.5,1.17l-.64-2.6a15.81,15.81,0,0,0-6.76,6.75l2.6.65a2.81,2.81,0,0,1-1.16,5.5l-3.17-.57a16.18,16.18,0,0,0,.08,4.45.62.62,0,0,1-.51.7h-.1" transform="translate(0 -9.18)"/><path class="cls-4" d="M49.05,62a17.54,17.54,0,0,1-2.7-.21.61.61,0,0,1-.51-.7.6.6,0,0,1,.7-.51A16.5,16.5,0,0,0,51,60.7l-.56-3.17a2.81,2.81,0,0,1,5.5-1.17l.64,2.6a15.81,15.81,0,0,0,6.76-6.75l-2.6-.65a2.81,2.81,0,0,1,1.17-5.5l3.16.56A16.11,16.11,0,0,0,65,42.18a.62.62,0,0,1,.51-.7.63.63,0,0,1,.71.51,17.48,17.48,0,0,1,0,5.45.59.59,0,0,1-.25.4.63.63,0,0,1-.46.11l-3.8-.68a1.59,1.59,0,0,0-1.29.35A1.58,1.58,0,0,0,61,50.37l3.34.83a.59.59,0,0,1,.41.33.67.67,0,0,1,0,.52,17.11,17.11,0,0,1-8.36,8.36.62.62,0,0,1-.53,0,.65.65,0,0,1-.33-.41l-.82-3.34a1.58,1.58,0,0,0-1.54-1.2A1.56,1.56,0,0,0,52,56a1.59,1.59,0,0,0-.35,1.29l.67,3.8a.61.61,0,0,1-.5.71,17,17,0,0,1-2.75.22" transform="translate(0 -9.18)"/><path class="cls-4" d="M29.52,69.57A5.31,5.31,0,1,1,33.28,68a5.31,5.31,0,0,1-3.76,1.56m0-9.38a4.07,4.07,0,1,0,2.89,1.19,4.09,4.09,0,0,0-2.89-1.19" transform="translate(0 -9.18)"/><path class="cls-4" d="M32.84,68.19a.6.6,0,0,1-.6-.5.63.63,0,0,1,.49-.72L44.36,64.8a1.38,1.38,0,0,0,1-1.09l1.13-6.39A1.57,1.57,0,0,0,45,55.46a1.56,1.56,0,0,0-1.53,1.2l-1.21,4.87a.61.61,0,0,1-.47.46l-4.4.88a.62.62,0,0,1-.68-.34,11.24,11.24,0,0,0-5.4-5.4.61.61,0,0,1-.34-.68l.88-4.4a.63.63,0,0,1,.46-.48l4.87-1.2a1.59,1.59,0,0,0-.66-3.1l-6.39,1.14a1.36,1.36,0,0,0-1.1,1L26.81,61.06a.62.62,0,0,1-1.21-.23L27.77,49.2a2.61,2.61,0,0,1,2.09-2l6.4-1.14a2.81,2.81,0,0,1,1.16,5.5l-4.49,1.11-.71,3.56a12.57,12.57,0,0,1,5.34,5.34l3.55-.71,1.11-4.5a2.81,2.81,0,0,1,5.5,1.17l-1.13,6.39a2.61,2.61,0,0,1-2,2.09L33,68.18h-.11" transform="translate(0 -9.18)"/><path class="cls-4" d="M61.39,43.41a2.81,2.81,0,0,1-.67-5.54l4.5-1.11.71-3.56a12.46,12.46,0,0,1-5.34-5.34L57,28.57l-1.11,4.49a2.81,2.81,0,0,1-5.5-1.16l1.13-6.39a2.62,2.62,0,0,1,2-2.09l11.65-2.17a.6.6,0,0,1,.71.49.61.61,0,0,1-.49.72L53.79,24.63a1.37,1.37,0,0,0-1,1.09l-1.13,6.39a1.6,1.6,0,0,0,.35,1.3,1.56,1.56,0,0,0,1.21.56,1.58,1.58,0,0,0,1.54-1.2l1.2-4.87a.63.63,0,0,1,.48-.46l4.4-.88a.62.62,0,0,1,.67.34,11.33,11.33,0,0,0,5.4,5.4.61.61,0,0,1,.34.68l-.88,4.4a.61.61,0,0,1-.45.48L61,39.06a1.58,1.58,0,0,0,.65,3.1L68.06,41A1.37,1.37,0,0,0,69.17,40l2.16-11.6a.62.62,0,1,1,1.21.23L70.37,40.23a2.61,2.61,0,0,1-2.09,2l-6.39,1.14a4.21,4.21,0,0,1-.5,0" transform="translate(0 -9.18)"/></g></g></g></g></svg>