<svg xmlns="http://www.w3.org/2000/svg" xmlns:xlink="http://www.w3.org/1999/xlink" viewBox="0 0 80.61 70.69"><defs><style>.cls-1{fill:none;}.cls-2{clip-path:url(#clip-path);}.cls-3{fill:#88ccd3;}.cls-4{clip-path:url(#clip-path-2);}.cls-5{fill:#2b4591;}</style><clipPath id="clip-path" transform="translate(0 -9.18)"><rect class="cls-1" width="90.61" height="89.05"/></clipPath><clipPath id="clip-path-2" transform="translate(0 -9.18)"><rect class="cls-1" x="28.83" y="16.01" width="51.78" height="52.79"/></clipPath></defs><title>r2</title><g id="Capa_2" data-name="Capa 2"><g id="EXCELENCIA"><g id="Capa_12_copia_9" data-name="Capa 12 copia 9"><g class="cls-2"><path class="cls-3" d="M35.34,79.87A35.35,35.35,0,1,0,0,44.53,35.35,35.35,0,0,0,35.34,79.87" transform="translate(0 -9.18)"/><g class="cls-4"><path class="cls-5" d="M79.74,63.83H66.46a.86.86,0,1,1,0-1.71h12.4a9,9,0,0,0-16.06-5,25.15,25.15,0,0,0-2.35,3.63.87.87,0,0,1-1.16.39.83.83,0,0,1-.4-1.13A26.43,26.43,0,0,1,61.43,56a10.78,10.78,0,0,1,19.18,6.53V63a.86.86,0,0,1-.87.85" transform="translate(0 -9.18)"/><path class="cls-5" d="M63.61,68.81H45.84A.87.87,0,0,1,45,68v-.37a9.75,9.75,0,0,1,19.5,0V68a.87.87,0,0,1-.86.86M46.73,67.1h16a8,8,0,0,0-16,0" transform="translate(0 -9.18)"/><path class="cls-5" d="M54.72,56.73a5,5,0,1,1,5.09-5,5,5,0,0,1-5.09,5m0-8.28a3.29,3.29,0,1,0,3.35,3.29,3.32,3.32,0,0,0-3.35-3.29" transform="translate(0 -9.18)"/><path class="cls-5" d="M69.87,50.39a5.46,5.46,0,1,1,5.55-5.45,5.51,5.51,0,0,1-5.55,5.45m0-9.2a3.75,3.75,0,1,0,3.81,3.75,3.79,3.79,0,0,0-3.81-3.75" transform="translate(0 -9.18)"/><path class="cls-5" d="M43,63.83H29.7a.86.86,0,0,1-.87-.85v-.42A10.79,10.79,0,0,1,48,56,26.2,26.2,0,0,1,50.56,60a.83.83,0,0,1-.4,1.13A.87.87,0,0,1,49,60.71a24.9,24.9,0,0,0-2.36-3.64,9.05,9.05,0,0,0-16.06,5H43a.86.86,0,1,1,0,1.71" transform="translate(0 -9.18)"/><path class="cls-5" d="M39.58,50.39a5.46,5.46,0,1,1,5.56-5.45,5.5,5.5,0,0,1-5.56,5.45m0-9.2a3.75,3.75,0,1,0,3.82,3.75,3.78,3.78,0,0,0-3.82-3.75" transform="translate(0 -9.18)"/><path class="cls-5" d="M54.72,42.49A13.24,13.24,0,1,1,68.21,29.25,13.38,13.38,0,0,1,54.72,42.49m0-24.77A11.53,11.53,0,1,0,66.47,29.25,11.65,11.65,0,0,0,54.72,17.72" transform="translate(0 -9.18)"/><path class="cls-5" d="M54.72,39.31A10.06,10.06,0,1,1,65,29.25,10.17,10.17,0,0,1,54.72,39.31m0-18.42a8.36,8.36,0,1,0,8.52,8.36,8.45,8.45,0,0,0-8.52-8.36" transform="translate(0 -9.18)"/><path class="cls-5" d="M56.75,35.37h-4a.87.87,0,0,1-.87-.86V32.1H49.37a.87.87,0,0,1-.87-.86v-4a.86.86,0,0,1,.87-.85h2.46V24a.86.86,0,0,1,.87-.85h4a.86.86,0,0,1,.87.85v2.42h2.46a.86.86,0,0,1,.87.85v4a.87.87,0,0,1-.87.86H57.62v2.41a.87.87,0,0,1-.87.86m-3.19-1.71h2.32V31.24a.86.86,0,0,1,.87-.85h2.46V28.11H56.75a.86.86,0,0,1-.87-.85V24.84H53.56v2.42a.85.85,0,0,1-.86.85H50.23v2.28H52.7a.85.85,0,0,1,.86.85Z" transform="translate(0 -9.18)"/></g></g></g></g></g></svg>