<svg xmlns="http://www.w3.org/2000/svg" xmlns:xlink="http://www.w3.org/1999/xlink" viewBox="0 0 83.06 70.69"><defs><style>.cls-1{fill:none;}.cls-2{clip-path:url(#clip-path);}.cls-3{fill:#f4b52d;}.cls-4{fill:#024697;}</style><clipPath id="clip-path" transform="translate(0 -9.18)"><rect class="cls-1" width="90.61" height="89.05"/></clipPath></defs><title>rec1</title><g id="Capa_2" data-name="Capa 2"><g id="TRANSPARENCIA"><g id="Capa_12_copia_15" data-name="Capa 12 copia 15"><g class="cls-2"><path class="cls-3" d="M35.34,79.87A35.35,35.35,0,1,0,0,44.53,35.35,35.35,0,0,0,35.34,79.87" transform="translate(0 -9.18)"/><path class="cls-4" d="M60.06,32.24v4.07c.35,0,.65,0,.95,0a1,1,0,0,0,1.1-1.18q0-.91,0-1.83a1,1,0,0,0-1-1c-.34,0-.68,0-1.08,0m-16.76,0h-.92a1,1,0,0,0-1.15,1.19q0,.91,0,1.83a1,1,0,0,0,.92,1,11,11,0,0,0,1.15,0ZM71,46.1H67.83c0,.55,0,1.09,0,1.64a1.6,1.6,0,0,0,3.19.11c0-.58,0-1.17,0-1.75m-38.74,0c0,.59,0,1.18,0,1.76a1.56,1.56,0,0,0,1.42,1.5,1.51,1.51,0,0,0,1.71-1.15,14.89,14.89,0,0,0,0-2.11ZM51.84,54l-1,.94c-1,1-1,1-.44,2.26.45,1.06.45,1,1.62,1,.33,0,.52-.07.64-.41.2-.53.46-1,.66-1.57a.71.71,0,0,0,0-.54c-.45-.57-.94-1.12-1.44-1.72m4.55,2.1c.7-1.44,1.38-2.81,2-4.19.06-.13.07-.39,0-.47-.56-.55-1.15-1.07-1.74-1.6.12,1-.51,1.32-1.14,1.7L53.35,52.9l2.72,2.92.32.29m-9.4.07,3-3.28c-.66-.41-1.41-.9-2.17-1.35s-1.24-.76-1-1.84c-.74.67-1.33,1.19-1.89,1.74a.53.53,0,0,0,0,.48c.66,1.38,1.33,2.75,2.07,4.25m1.64-10.85c0,1.43,0,2.82,0,4.2a.8.8,0,0,0,.33.52c.78.51,1.58,1,2.39,1.48a.68.68,0,0,0,.59,0c.85-.49,1.67-1,2.5-1.55a.58.58,0,0,0,.25-.37c0-1.42,0-2.84,0-4.28-3.35.65-3.35.65-6.08,0m-7.41-7.24c0,.26,0,.5,0,.74A7.38,7.38,0,0,1,38,44.9c-.42.29-.66.56-.57,1.07a2,2,0,0,1,0,.49c-.09.49.13.68.6.83a34,34,0,0,1,6.3,2.17,5.44,5.44,0,0,1,.77-.67,3.58,3.58,0,0,0,1.71-3.93,1.37,1.37,0,0,0-.47-1A9.5,9.5,0,0,1,45,42.47a8.3,8.3,0,0,1-1.66-4.24l-2.1-.14M59,49.42c.82-.33,1.52-.66,2.25-.9,1.21-.4,2.45-.75,3.68-1.11,1-.31,1-.31,1-1.37a1.19,1.19,0,0,0-.62-1.18,7,7,0,0,1-3-4.45c-.16-.77-.2-1.56-.29-2.31l-2,.13A7,7,0,0,1,57.92,43a3.86,3.86,0,0,0-1.35,3.74,1.92,1.92,0,0,0,0,.24,1.19,1.19,0,0,0,.21.47c.73.7,1.49,1.38,2.2,2m5-12.58H64c0,.77,0,1.55,0,2.32a5.47,5.47,0,0,0,5.14,5.14,5.25,5.25,0,0,0,5.52-4.44,29.15,29.15,0,0,0,0-6,5.17,5.17,0,0,0-4.92-4.41,5.31,5.31,0,0,0-5.58,4.08A22.32,22.32,0,0,0,64,36.84m-24.56,0h-.08c0-.76,0-1.52,0-2.27a5.38,5.38,0,0,0-4.81-5.1,5.28,5.28,0,0,0-5.85,4.39,38,38,0,0,0-.14,5,5.39,5.39,0,0,0,10.65,1.2,24.68,24.68,0,0,0,.24-3.23m16.16-6.75a6.73,6.73,0,0,1-4.71,2.1c-1,0-2,0-2.94,0a3.14,3.14,0,0,0-2.71,2.5,24.57,24.57,0,0,0,.11,3.84A6.39,6.39,0,0,0,51.68,44,6.32,6.32,0,0,0,58,38.56c.21-2.1.11-4.24.13-6.36a.55.55,0,0,0-.23-.37c-.77-.58-1.56-1.13-2.38-1.72M41.79,69.2A10.07,10.07,0,0,1,49,58.6l-.51-1.23c-1.58,1-2.61.7-3.41-.95-.57-1.15-1.15-2.3-1.68-3.46-.19-.4-.39-.47-.81-.36-1.09.3-2.21.54-3.32.81A6.53,6.53,0,0,0,34,60q0,4.32,0,8.64c0,.18,0,.36,0,.56h4c-.24-1.13.44-2.34-.64-3.31-.17-.15-.11-.8.07-1a1.16,1.16,0,0,1,1-.27,2.42,2.42,0,0,1,1.42,2c0,.86,0,1.71,0,2.59ZM62.11,30.36c0-.78,0-1.63,0-2.49A15,15,0,0,0,62,26a10.37,10.37,0,0,0-14-8.16c-5.79,2.31-7.27,7.19-6.7,12.54.86,0,1.71,0,2.56,0,.7,0,1.2.18,1.36.95a4.38,4.38,0,0,1,3.07-.95c.73,0,1.47,0,2.21,0a5,5,0,0,0,4.25-2.24c.56-.78,1.1-1.57,1.65-2.36s1-.85,1.47-.51.55.86.09,1.55c-.27.4-.57.79-.81,1.22a.8.8,0,0,0,0,.64,3.12,3.12,0,0,0,2.83,1.7h2.17M54.39,58.57c.64.27,1.23.49,1.79.77a.77.77,0,0,1,.45,1,1.54,1.54,0,0,1-.82.7c-.2.08-.54-.11-.79-.22a8,8,0,1,0,3.36,2.88c-.46-.7-.43-1.21.08-1.55s1-.19,1.48.56a15,15,0,0,1,1,2.08,9.68,9.68,0,0,1,.56,4.37h1.94a20.27,20.27,0,0,0,0-2.07,2.37,2.37,0,0,1,1-2.23c.54-.46,1.06-.52,1.46-.1a1,1,0,0,1-.12,1.42c-.15.16-.37.34-.38.52,0,.83,0,1.66,0,2.46h3.94V60.13c0-.23,0-.45,0-.68a6.48,6.48,0,0,0-4.9-6c-1.22-.32-2.45-.61-3.67-.93a.52.52,0,0,0-.72.34c-.55,1.18-1.14,2.34-1.71,3.51-.8,1.65-1.84,1.95-3.41,1l-.51,1.19M50.44,78a26.48,26.48,0,0,1-3-1,9.47,9.47,0,0,1-5-5.4.71.71,0,0,0-.8-.53c-2.65,0-5.31,0-8,0-1.27,0-1.47-.21-1.47-1.5V65.16H21.6c-1,0-1.31-.28-1.31-1.3,0-.79,0-1.59,0-2.39s.35-1.07.9-1.08a1,1,0,0,1,.93,1.06c0,.58,0,1.17,0,1.8H26.3c0-1,0-1.87,0-2.79,0-.7.35-1.14.91-1.15s.93.42.93,1.12c0,.92,0,1.83,0,2.8h4c0-1.07,0-2.13,0-3.19A8.39,8.39,0,0,1,39,51.56a26.28,26.28,0,0,0,3.48-1L37.26,49c-2.1,3-4.93,3-6.66,0-1.71.54-3.48,1-5.15,1.64a5.16,5.16,0,0,0-3.32,4.92c0,.53,0,1.07,0,1.6a.83.83,0,0,1-.91.8.79.79,0,0,1-.89-.74c-.18-2.35.1-4.57,1.75-6.42a7.67,7.67,0,0,1,3.7-2.28c1.39-.4,2.77-.85,4.16-1.23.44-.12.52-.34.55-.77a1.78,1.78,0,0,0-.87-1.79,6.61,6.61,0,0,1-2.93-5.57,35.5,35.5,0,0,1,.13-5.56A6.69,6.69,0,0,1,31.61,28a7,7,0,0,1,7.14,1.44l.23.2.35.31V28a13.08,13.08,0,0,1,1-5.24A12.32,12.32,0,0,1,63.76,25.2,27.5,27.5,0,0,1,64,28.61c0,.4,0,.8,0,1.34a8,8,0,0,1,3.36-2.06,7.25,7.25,0,0,1,9.31,6.74,42.11,42.11,0,0,1-.15,5.62,6.37,6.37,0,0,1-3,4.67,1.11,1.11,0,0,0-.6,1.18,8,8,0,0,1,0,1c1.56.48,3.07,1,4.59,1.4A7.2,7.2,0,0,1,83,54.35c0,.06.06.1.1.15v2.94a.75.75,0,0,0-.15.09.91.91,0,0,1-1.14.33,1,1,0,0,1-.56-1,9.26,9.26,0,0,0,0-1.29A5.11,5.11,0,0,0,78,50.69C76.32,50,74.5,49.53,72.71,49a3.51,3.51,0,0,1-6.58,0l-5.23,1.6a21,21,0,0,0,3.09.86,8.5,8.5,0,0,1,7.18,9c0,.91,0,1.83,0,2.76h4c0-1,0-2,0-3a.91.91,0,0,1,.92-.93,1,1,0,0,1,.91.91c0,.22,0,.45,0,.67v2.36h4.17c0-.68,0-1.33,0-2a.89.89,0,0,1,1.31-.79,3.28,3.28,0,0,1,.52.4v3.68a1.4,1.4,0,0,1-1.3.61c-3.31,0-6.62,0-9.92,0h-.67v4.62c0,1.1-.26,1.35-1.39,1.35-2.69,0-5.38,0-8.08,0a.72.72,0,0,0-.79.54,9.72,9.72,0,0,1-6,5.83c-.66.24-1.36.37-2,.55Z" transform="translate(0 -9.18)"/><path class="cls-4" d="M51.67,63.85a4,4,0,0,1-4.05,2.93A9.09,9.09,0,0,1,49.16,69a8.87,8.87,0,0,1,.06,2.58,8.94,8.94,0,0,1,2.47-.74,9.84,9.84,0,0,1,2.6.79,4,4,0,0,1,1.48-4.75,4.18,4.18,0,0,1-4.1-3m-4.4,7.44c.57-1.24-.17-2.25-1.12-3.29a1.77,1.77,0,0,1,.94-2.91,3.82,3.82,0,0,0,3-2.21,1.75,1.75,0,0,1,3,0,3.87,3.87,0,0,0,3.05,2.22,1.81,1.81,0,0,1,1,2.92,3,3,0,0,1-.56.65A2.09,2.09,0,0,0,56,70.91a3.34,3.34,0,0,1,0,1.26,1.72,1.72,0,0,1-2.4,1.2,3.79,3.79,0,0,0-3.77,0c-1.22.59-2.54-.46-2.52-2.08" transform="translate(0 -9.18)"/></g></g></g></g></svg>