<svg xmlns="http://www.w3.org/2000/svg" xmlns:xlink="http://www.w3.org/1999/xlink" viewBox="0 0 79.43 70.71"><defs><style>.cls-1{fill:none;}.cls-2{clip-path:url(#clip-path);}.cls-3{fill:#f4b52d;}.cls-4{clip-path:url(#clip-path-2);}.cls-5{fill:#2b4591;}</style><clipPath id="clip-path" transform="translate(0 -9.18)"><rect class="cls-1" width="90.64" height="89.08"/></clipPath><clipPath id="clip-path-2" transform="translate(0 -9.18)"><rect class="cls-1" x="23.96" y="20.21" width="55.48" height="55.44"/></clipPath></defs><title>rec2</title><g id="Capa_2" data-name="Capa 2"><g id="TRANSPARENCIA"><g id="Capa_12_copia_15" data-name="Capa 12 copia 15"><g class="cls-2"><path class="cls-3" d="M35.36,79.9A35.36,35.36,0,1,0,0,44.54,35.36,35.36,0,0,0,35.36,79.9" transform="translate(0 -9.18)"/></g><g class="cls-4"><path class="cls-5" d="M27.32,26.66c.75,0,1.48,0,2.22,0a.78.78,0,0,0,.84-.75c0-.78,0-1.57,0-2.31l-3.07,3.07M42.4,28.6a11.14,11.14,0,0,0-8.47,5.25l8.47,4.24Zm-7.56,18,6.82-6.81-8.53-4.26c-1.62,3.26-.74,8.65,1.71,11.07m19.53-8a10.92,10.92,0,0,0-10-10v10ZM36.29,48.07l.12.15.21.17a10.79,10.79,0,0,0,8.76,2.12,8.22,8.22,0,0,0,5.34-2.9,7.73,7.73,0,0,1,1-1c1.82-1.59,2.34-3.75,2.72-6l-.32,0c-3.36,0-6.71,0-10.07,0a1,1,0,0,0-.58.29Q40,44.29,36.61,47.72c-.11.11-.21.23-.32.35M48,59A14.79,14.79,0,1,0,62.82,44.26,14.82,14.82,0,0,0,48,59m.93,9.24a16.57,16.57,0,0,1-1.12-16.48,13,13,0,1,1,1-24,12.66,12.66,0,0,1,6.47,6.76A12.85,12.85,0,0,1,55.58,44l3.49-1.23V23.36c0-1-.27-1.3-1.32-1.3H32.3c0,1.25,0,2.46,0,3.66a2.79,2.79,0,0,1-2.82,2.82H26.34l-.53,0V66.88c0,1.14.26,1.39,1.41,1.39H48.94ZM79.43,57.59v2.92c-.08.48-.15,1-.23,1.43A16.65,16.65,0,0,1,64.29,75.59a16.37,16.37,0,0,1-13.38-5,1.55,1.55,0,0,0-1.22-.5H27a2.78,2.78,0,0,1-3-3q0-19.31,0-38.61a3.13,3.13,0,0,1,1-2.36c1.57-1.55,3.12-3.1,4.67-4.67a4.69,4.69,0,0,1,1.93-1.33H58.74A3.1,3.1,0,0,1,61,23.6c0,6.06,0,12.13,0,18.2v.56c1.48.07,2.9,0,4.28.21A16.54,16.54,0,0,1,79,55.31c.17.75.28,1.52.42,2.28" transform="translate(0 -9.18)"/><path class="cls-5" d="M79.43,33.53c-.26.36-.54.69-1.05.6s-.74-.5-.88-1-.22-.75-.37-1.25c-.13.26-.22.42-.31.58l-4.54,8.41c-.08.15-.15.29-.24.43a.93.93,0,0,1-1.62-.9c.29-.6.62-1.18.94-1.77l3.82-7.08c.08-.15.16-.31.27-.55l-1.39.41a1,1,0,0,1-1.32-.61c-.15-.53.16-1,.81-1.19l3.36-1a1,1,0,0,1,1.44.77l1.08,3.5Z" transform="translate(0 -9.18)"/><path class="cls-5" d="M67.41,29.08v.57c0,3.28,0,6.57,0,9.85,0,.84-.71,1.32-1.37.94a1,1,0,0,1-.48-1q0-4.86,0-9.74V29c-.43.42-.77.76-1.13,1.1a.92.92,0,0,1-1.31.11.89.89,0,0,1-.11-1.3c.93-1,1.89-1.94,2.86-2.87a.83.83,0,0,1,1.23,0c1,.93,1.9,1.87,2.83,2.83a.88.88,0,0,1,0,1.27.89.89,0,0,1-1.31,0c-.38-.34-.72-.73-1.07-1.1l-.13.07" transform="translate(0 -9.18)"/><path class="cls-5" d="M39.68,62.71h3.24c.94,0,1.42.33,1.4,1s-.48.93-1.39.93H31.78c-1.06,0-1.35-.28-1.35-1.35V54.81c0-.12,0-.25,0-.37a.93.93,0,0,1,1-1,1,1,0,0,1,.91,1c0,.42,0,.84,0,1.25v6.94h1.84V60a.9.9,0,0,1,.76-1A.93.93,0,0,1,36,60c0,.88,0,1.76,0,2.67h1.84V56.47c0-.71.37-1.15.94-1.15s.91.44.91,1.17v6.22Z" transform="translate(0 -9.18)"/><path class="cls-5" d="M73.88,59.11a11.09,11.09,0,1,0-11,11,11.14,11.14,0,0,0,11-11m-24-.09a13,13,0,1,1,12.9,13,12.89,12.89,0,0,1-12.9-13" transform="translate(0 -9.18)"/><path class="cls-5" d="M63.74,65.23a2.61,2.61,0,0,0,1.82-2.56,2.55,2.55,0,0,0-1.82-2.42Zm-1.9-12.41a2.66,2.66,0,0,0,0,5Zm0,12.5a3.23,3.23,0,0,0,0-.35V59.91a5,5,0,0,1-2.8-1.81A4.62,4.62,0,0,1,61.34,51c.3-.1.52-.17.6-.56a.9.9,0,0,1,1.71,0c.08.35.28.44.57.53a4.58,4.58,0,0,1,3.19,4.25c0,.64-.33,1.06-.87,1.09s-.92-.37-1-1a2.62,2.62,0,0,0-1.81-2.45c0,.11,0,.21,0,.31v5a4.65,4.65,0,0,1,.49,9c-.28.09-.48.17-.56.52a.74.74,0,0,1-.89.61,1.28,1.28,0,0,1-.82-.64.69.69,0,0,0-.54-.48,4.58,4.58,0,0,1-3.22-4.23c0-.67.29-1.07.84-1.11a1,1,0,0,1,1,1,2.78,2.78,0,0,0,1.8,2.5" transform="translate(0 -9.18)"/></g></g></g></g></svg>