<svg xmlns="http://www.w3.org/2000/svg" xmlns:xlink="http://www.w3.org/1999/xlink" viewBox="0 0 75.74 70.69"><defs><style>.cls-1{fill:none;}.cls-2{clip-path:url(#clip-path);}.cls-3{fill:#f4b52d;}.cls-4{fill:#024697;}</style><clipPath id="clip-path" transform="translate(0 -9.18)"><rect class="cls-1" width="90.61" height="89.05"/></clipPath></defs><title>rec3</title><g id="Capa_2" data-name="Capa 2"><g id="TRANSPARENCIA"><g id="Capa_12_copia_15" data-name="Capa 12 copia 15"><g class="cls-2"><path class="cls-3" d="M35.34,79.87A35.35,35.35,0,1,0,0,44.53,35.35,35.35,0,0,0,35.34,79.87" transform="translate(0 -9.18)"/><polygon class="cls-4" points="62.63 36.8 64.77 38.78 69.18 34.02 73.59 38.78 75.74 36.8 69.18 29.73 62.63 36.8"/><path class="cls-4" d="M21.33,46.2h4.6V67h-4.6ZM18.41,69.89H28.85V43.28H18.41Z" transform="translate(0 -9.18)"/><path class="cls-4" d="M35.58,35.37h4.6V67h-4.6ZM32.66,69.89H43.1V32.44H32.66Z" transform="translate(0 -9.18)"/><polygon class="cls-4" points="50.37 58.31 47.45 58.31 47.45 17.34 57.89 17.34 57.89 55.01 54.97 55.01 54.97 20.26 50.37 20.26 50.37 58.31"/><path class="cls-4" d="M70,32.31a2.33,2.33,0,0,0,1.17-.59,1.55,1.55,0,0,0,.46-1.19,1.68,1.68,0,0,0-.22-.91,2.07,2.07,0,0,0-.59-.63,4.08,4.08,0,0,0-.82-.47ZM68.88,25.1V21.82a2.54,2.54,0,0,0-.94.27,1.74,1.74,0,0,0-.61.52,1.31,1.31,0,0,0-.22.73,1.42,1.42,0,0,0,.23.8,1.7,1.7,0,0,0,.63.55,7.06,7.06,0,0,0,.91.41m.56,11a.83.83,0,0,1-.52-.17.46.46,0,0,1-.22-.38v-.61a6.54,6.54,0,0,1-2.37-.44,5,5,0,0,1-1.66-1,1.75,1.75,0,0,1-.6-1.22,1.47,1.47,0,0,1,.17-.66A1.89,1.89,0,0,1,64.7,31a.89.89,0,0,1,.61-.25,1,1,0,0,1,.6.22c.21.14.43.32.68.52a4.41,4.41,0,0,0,.88.55,3.8,3.8,0,0,0,1.23.34V28c-.49-.19-1-.39-1.49-.61a6,6,0,0,1-1.37-.81,3.52,3.52,0,0,1-1-1.19,3.68,3.68,0,0,1-.38-1.77,4.11,4.11,0,0,1,.35-1.79,3.47,3.47,0,0,1,.94-1.25,4.87,4.87,0,0,1,1.36-.8,7.13,7.13,0,0,1,1.59-.4v-.61a.47.47,0,0,1,.22-.38.83.83,0,0,1,.52-.16.8.8,0,0,1,.49.16.48.48,0,0,1,.23.38v.57a9,9,0,0,1,1.19.12,6.79,6.79,0,0,1,1.22.29,3,3,0,0,1,1,.51,1,1,0,0,1,.38.8,1.66,1.66,0,0,1-.13.59,2,2,0,0,1-.37.64.82.82,0,0,1-.65.27,1.25,1.25,0,0,1-.62-.18L71.37,22a3.6,3.6,0,0,0-1.21-.25v3.83a15.36,15.36,0,0,1,1.47.62,6.78,6.78,0,0,1,1.33.87,3.85,3.85,0,0,1,1,1.29,4.44,4.44,0,0,1,.37,1.88,4.34,4.34,0,0,1-1.15,3.17,5.13,5.13,0,0,1-3,1.45v.67a.47.47,0,0,1-.23.38.81.81,0,0,1-.49.17" transform="translate(0 -9.18)"/></g></g></g></g></svg>