<svg xmlns="http://www.w3.org/2000/svg" viewBox="0 0 213.81 254.07"><defs><style>.cls-1{font-size:27.47px;font-family:CenturyGothic, Century Gothic;}.cls-1,.cls-2{fill:#2c4590;}.cls-2{font-size:42.92px;font-family:RoughRough, Rough Rough;}.cls-3{fill:#89cdd4;}.cls-4{fill:none;stroke:#2c4590;stroke-miterlimit:10;stroke-width:2.58px;}</style></defs><title>sociedad</title><g id="Capa_2" data-name="Capa 2"><g id="nuestra_empresa_2" data-name="nuestra empresa 2"><g id="Capa_12_copia_2" data-name="Capa 12 copia 2"><text class="cls-1" transform="translate(0.91 116.12)">La sociedad es </text><text class="cls-1" transform="translate(13.73 150.46)">administrada </text><text class="cls-1" transform="translate(0 184.8)">por un </text><text class="cls-2" transform="translate(93.64 184.8)">Gerente </text><text class="cls-2" transform="translate(45.57 232.87)">general</text><path class="cls-3" d="M95.56,82.26A37.48,37.48,0,1,0,58.09,44.79,37.48,37.48,0,0,0,95.56,82.26"/><path class="cls-4" d="M77.2,70.33c0-18.73,12.08-33.92,27-33.92a22.41,22.41,0,0,1,11.43,3.18m2.85-24.41a14.28,14.28,0,0,1-28.55,0,14.28,14.28,0,0,1,28.55,0Z"/><path class="cls-4" d="M87.32,44l17.13,24.37L112,57.27m-7.52-16.11c.67,0,1.34,0,2,0,1.8.11,2.59,1.55,1.65,3-.33.51-1,1.54-1.39,2s-.83,1.23-.78,1.49c.36,2,1.39,7.78,1.39,7.78s-2.34,4.9-2.93,5.79a39.77,39.77,0,0,1-2.86-5.77c.25-1.86,1.1-5.41,1.53-7.77,0-.26-.82-1.31-1-1.55-.57-.86-.85-1.15-1.42-2-.92-1.4-.16-2.82,1.59-3,.72-.06,1.46,0,2.19,0ZM128,52.72l-3.25-3.1A2.69,2.69,0,0,0,122,49a2.4,2.4,0,0,0-1.06,4.12c1.57,1.52,3.19,3,4.8,4.49s3,1.49,4.56,0l9.65-9a5.43,5.43,0,0,0,.66-.7,2.42,2.42,0,0,0-1.51-3.81,2.88,2.88,0,0,0-2.82.89Zm.81,13.53c-.79-.18-1.6-.3-2.38-.53C120,63.82,116,59.81,114.87,53.53,113.58,46.24,118.52,39,126.05,37c8.9-2.38,17.92,2.51,20.12,10.93s-4.12,17-13.29,18.16a1.83,1.83,0,0,0-.45.15Z"/></g></g></g></svg>