<svg xmlns="http://www.w3.org/2000/svg" viewBox="0 0 231.08 220.85"><defs><style>.cls-1{font-size:42.92px;font-family:RoughRough, Rough Rough;}.cls-1,.cls-2{fill:#2c4590;}.cls-2{font-size:27.47px;font-family:CenturyGothic, Century Gothic;}.cls-3{fill:#89cdd4;}.cls-4{fill:none;stroke:#2c4590;stroke-miterlimit:10;stroke-width:2.58px;}</style></defs><title>varios</title><g id="Capa_2" data-name="Capa 2"><g id="nuestra_empresa_2" data-name="nuestra empresa 2"><g id="Capa_12_copia_2" data-name="Capa 12 copia 2"><text class="cls-1" transform="translate(70.03 109.42)">varios</text><text class="cls-2" transform="translate(16.1 143.76)">representantes </text><text class="cls-2" transform="translate(32.17 178.09)">legales para </text><text class="cls-2" transform="translate(0 212.43)">asuntos judiciales</text><path class="cls-3" d="M105,75A37.48,37.48,0,1,0,67.51,37.47,37.47,37.47,0,0,0,105,75"/><path class="cls-4" d="M97,17s3.28,2.31,6.17,2.63,9.45-1.46,12.24.46m-4.32,41.11h0a2.92,2.92,0,0,1-.65-4.06l2.53-3.52a2.89,2.89,0,0,1,4-.66,2.92,2.92,0,0,1,.66,4.06l-2.53,3.52A2.89,2.89,0,0,1,111.06,61.23Zm-5.9-2.38h0a2.93,2.93,0,0,1-.65-4.06L108,49.88a2.89,2.89,0,0,1,4-.65,2.92,2.92,0,0,1,.66,4.06l-3.53,4.9A2.89,2.89,0,0,1,105.16,58.85Zm-4.65-4.22h0a2.93,2.93,0,0,1-.66-4.07l3.53-4.9a2.88,2.88,0,0,1,4-.66,2.92,2.92,0,0,1,.66,4.06L104.55,54A2.89,2.89,0,0,1,100.51,54.63Zm-4.09-5.08h0a2.92,2.92,0,0,1-.65-4.07l2.38-3.31a2.9,2.9,0,1,1,4.69,3.41l-2.38,3.31A2.89,2.89,0,0,1,96.42,49.55ZM84.65,40.73,82.79,40a2.63,2.63,0,0,1-1.44-3.41l8.93-22.25a2.61,2.61,0,0,1,3.4-1.45l1.85.75A2.62,2.62,0,0,1,97,17L88,39.28A2.58,2.58,0,0,1,84.65,40.73Zm76.16-2.82-1.8.86a2.6,2.6,0,0,1-3.48-1.22L145.19,15.92a2.63,2.63,0,0,1,1.22-3.5l1.81-.87a2.6,2.6,0,0,1,3.48,1.23L162,34.41A2.62,2.62,0,0,1,160.81,37.91Zm-19.88,9.91s3.74,3.14,6,.56c1.76-2,2.13-4.06,0-6.17M134.61,53s3.72,2.64,6.31-.67c2.43-3.1-.81-6.13-4.78-8.72m-8.45,14.23s4,3.13,6.91.1c2.5-2.59.51-5.76-3.46-8.35M87.92,38.33l8.56,6.16m19.88,14.34c2.47,1.78,4.23,3.06,4.72,3.44,2.34,1.77,4.62,1.77,6.17.44s2.06-4.36-1.91-7.31m21-38.59s-3.93,2-5.52,2.56-18-3.1-20.38-2.56S105.6,28,104.75,29.4s5.52,7.14,14.65-1c0,0,4.88,7.26,17.62,6l11,8.65L155,37.82"/></g></g></g></svg>